<?xml version="1.0" encoding="UTF-8" standalone="no"?>
<!-- Created with Inkscape (http://www.inkscape.org/) -->

<svg
   width="210mm"
   height="297mm"
   viewBox="0 0 210 130"
   version="1.1"
   id="svg1"
   xmlns="http://www.w3.org/2000/svg"
   xmlns:svg="http://www.w3.org/2000/svg">
  <defs
     id="defs1" />
  <path
     id="path55"
     d="m 39.09379,20.698171 c -3.47237,-2.89574 -7.57146,-5.03263 -11.9314,-6.22015 0.56929,0.82042 1.44046,1.36984 2.28784,1.89708 -1.17879,-0.0682 -2.35757,-0.1355 -3.53717,-0.20367 1.04425,0.47879 2.0278,1.09062 2.91948,1.81579 -1.94495,-0.33261 -3.93913,-0.37449 -5.89556,-0.12319 0.58569,0.33917 1.13366,0.74488 1.62913,1.20642 -0.83343,-0.0739 -1.68983,0.15685 -2.37234,0.63975 0.34699,0.20449 0.63246,0.5141 0.80719,0.87709 -0.21902,0.0444 -0.43969,0.0887 -0.65953,0.13223 0.82359,1.69506 2.70046,2.54669 4.3985,3.36055 2.43878,1.16946 4.78814,2.52452 7.02103,4.05123 -3.16476,0.70462 -6.22943,1.8552 -9.07673,3.40736 0.6341,0.12647 1.28543,0.16754 1.93019,0.12154 -0.55699,0.29073 -1.07625,0.65208 -1.543,1.07338 0.47824,0.0846 0.9573,0.17 1.43554,0.25541 -0.31254,0.24062 -0.62589,0.48125 -0.93843,0.7227 1.64471,-0.0493 3.22053,0.58391 4.79389,1.0668 4.26068,1.30743 8.76418,1.54313 13.21436,1.7698 0.37734,0.0189 0.76535,0.0369 1.123,-0.0846 0.58898,-0.20121 0.99996,-0.75637 1.19109,-1.34932 0.44543,-1.38627 -0.14602,-2.87437 -0.75879,-4.19494 -1.39944,-3.01645 -2.96952,-5.95242 -4.70037,-8.79148 l -1.33792,-1.42979"
     style="fill:#566e3e;fill-opacity:1;fill-rule:nonzero;stroke:none;stroke-width:0.00820781" />
  <path
     id="path56"
     d="m 53.67971,26.524111 c -0.86379,1.04627 -1.55695,2.23298 -2.04421,3.49935 2.18612,-2.62143 4.41408,-5.28146 7.25727,-7.16705 -1.15991,1.29593 -2.18366,2.71423 -3.04909,4.22369 2.35183,-2.54013 5.2344,-4.58422 8.40817,-5.9631 -0.93105,0.88202 -1.78417,1.84535 -2.5487,2.8752 1.40192,-0.79333 2.80628,-1.58255 4.21311,-2.36602 1.23292,-0.68657 2.52163,-1.38545 3.92928,-1.4684 -1.24932,1.20888 -2.49865,2.41776 -3.74799,3.62664 3.18198,-1.37888 6.5354,-2.7865 9.98727,-2.46047 -1.51512,0.85 -2.99495,1.76159 -4.43542,2.7323 3.13686,-0.58719 6.34674,-0.78593 9.532,-0.58965 -2.33706,0.56584 -4.62819,1.31811 -6.84631,2.24776 3.12867,-0.21764 6.27865,-0.10594 9.38352,0.33096 -2.05077,0.58884 -4.10154,1.17768 -6.15231,1.76569 2.88256,0.24063 5.76513,0.48043 8.64852,0.72024 -3.13276,0.64303 -5.94806,2.43007 -9.09231,3.01563 -3.67827,0.68409 -7.43693,-0.33097 -11.17507,-0.48372 -3.95226,-0.16179 -7.93322,0.68902 -11.4991,2.3964 -1.0016,0.47961 -3.55605,2.72738 -4.60194,2.42105 -1.2239,-0.35889 -0.99175,-2.57134 -0.64394,-3.41804 0.89988,-2.19438 2.94491,-4.17524 4.47725,-5.93846"
     style="fill:#566e3e;fill-opacity:1;fill-rule:nonzero;stroke:none;stroke-width:0.00820781" />
  <path
     id="path57"
     d="m 43.84748,13.046581 c -0.23789,0.5141 -0.37488,1.07337 -0.40031,1.63921 1.35761,-1.21135 3.11143,-1.969356 4.92349,-2.128677 -0.63573,0.749797 -1.10577,1.640037 -1.36663,2.587757 0.51105,-0.4172 1.10086,-0.73584 1.72922,-0.9354 -0.40606,0.70134 -0.69481,1.47003 -0.84985,2.26582 0.72844,-0.31535 1.4175,-0.72269 2.04504,-1.21052 -0.90973,1.54067 -1.51512,3.26036 -1.7727,5.0318 1.07953,-1.4183 2.41417,-2.97128 4.19507,-2.98688 -1.35187,2.00384 -2.74066,4.1046 -3.05238,6.50183 0.80637,-1.1128 1.78582,-2.09829 2.89324,-2.91133 -0.95156,1.33946 -1.67097,2.84481 -2.11394,4.42736 0.78257,-0.79169 1.56597,-1.58337 2.34855,-2.37505 -0.92367,1.40269 -1.71281,2.89408 -2.35101,4.44789 0.74484,-0.58227 1.37648,-1.30908 1.84898,-2.12787 -1.55531,2.95815 -2.5889,6.19141 -3.03761,9.50433 -0.16242,1.19327 -0.2584,2.43172 -0.81375,3.50017 -0.0779,0.14946 -0.18129,0.30797 -0.34453,0.34821 -0.315,0.078 -0.5291,-0.30961 -0.61605,-0.62251 -0.36832,-1.314 -0.65133,-2.65181 -1.07624,-3.94857 -0.53567,-1.63018 -1.29035,-3.17824 -2.04339,-4.72055 -1.62422,-3.3277 -3.39444,-6.62173 -4.88741,-10.01103 -0.67512,-1.53327 0.16817,-2.43993 1.23375,-3.602 0.38144,-0.41637 3.49205,-2.44487 3.50846,-2.67399"
     style="fill:#566e3e;fill-opacity:1;fill-rule:nonzero;stroke:none;stroke-width:0.00820781" />
  <path
     id="path58"
     d="m 38.82718,31.690591 c 0.98438,0.88203 1.96793,1.76487 2.95148,2.64689 -2.96542,-1.29839 -6.0547,-2.31182 -9.21289,-3.0222 1.69229,0.96661 3.34686,1.9981 4.95877,3.09283 -3.3321,-0.93787 -6.74951,-1.57434 -10.19563,-1.89791 2.04093,0.93541 4.08268,1.87163 6.12361,2.80785 -3.96784,-0.68821 -8.05954,-0.657 -12.01671,0.0928 0.29285,0.49767 0.91218,0.67835 1.47246,0.81631 1.99663,0.49276 3.99408,0.98633 5.99153,1.47908 -4.2976,0.39502 -8.54598,1.32467 -12.616357,2.76022 2.436327,0.22174 4.879207,0.37203 7.323727,0.45169 -4.12944,0.89516 -8.086611,2.57708 -11.598521,4.92832 2.507853,-0.43773 5.02456,-0.81961 7.549471,-1.14565 -3.296823,1.34275 -6.327867,3.33428 -8.870658,5.82759 2.72162,-1.32057 5.419615,-2.68795 8.093828,-4.10214 -2.611048,1.39859 -4.820959,3.5363 -6.306541,6.10025 3.105695,-2.42433 6.210561,-4.84948 9.315441,-7.27464 -1.32071,1.484 -2.35265,3.22423 -3.02367,5.09504 2.22796,-2.57216 4.45592,-5.14349 6.68388,-7.71482 -1.27558,2.29539 -2.55198,4.5916 -3.82756,6.88782 2.3469,-2.85466 4.69463,-5.70851 7.04235,-8.56317 -1.27722,2.2338 -2.55362,4.4676 -3.83002,6.70222 1.35351,-1.07174 2.38546,-2.48839 3.39936,-3.88534 1.12793,-1.55462 2.25585,-3.10843 3.38296,-4.66223 -1.17305,2.31757 -2.34691,4.63513 -3.52077,6.9527 2.03847,-3.10679 4.36897,-6.02141 6.94966,-8.69293 -1.46671,2.45882 -2.93343,4.91847 -4.40014,7.3781 2.0237,-2.64524 4.06545,-5.31102 6.57888,-7.49472 -0.85066,1.78787 -1.90229,3.47881 -3.1303,5.03098 2.34854,-1.26883 3.70534,-3.97321 6.13181,-5.08436 -1.09593,0.87956 -2.04995,1.9365 -2.81448,3.11582 1.86703,-1.30907 3.88335,-2.40544 5.9981,-3.25872 -1.46343,0.87053 -2.82186,1.91927 -4.0351,3.11582 1.753,-0.87052 3.54374,-1.66302 5.36564,-2.37587 -0.93514,0.48043 -1.74069,1.21217 -2.30916,2.09747 0.42082,-0.65536 3.35014,-1.17603 4.11713,-1.37313 -0.28547,0.2628 -0.60129,0.49768 -0.88512,0.76048 3.0614,-0.4985 1.27886,-2.55901 -0.31089,-3.7334 -2.03601,-1.50453 -4.22542,-2.80129 -6.52557,-3.85906"
     style="fill:#668944;fill-opacity:1;fill-rule:nonzero;stroke:none;stroke-width:0.00820781" />
  <path
     id="path59"
     d="m 57.82883,103.73721 c -0.2707,-0.40077 -5.9054,-4.820737 -9.36383,-13.827389 -3.03596,-7.90863 -3.57327,-17.99687 -3.94733,-28.25756 -0.39538,-10.82243 2.05816,-23.73824 2.05816,-23.73824 l 2.68816,0.83522 c 0,0 -2.0918,9.52403 -1.12957,21.45434 0.76535,9.49036 2.71932,20.74723 6.64286,26.42371 3.00397,4.34688 11.1841,8.871142 11.1841,8.871142 0,0 -0.24692,3.49278 -2.92194,4.851127 l -5.21061,3.38765"
     style="fill:#95693f;fill-opacity:1;fill-rule:nonzero;stroke:none;stroke-width:0.00820781" />
  <path
     id="path60"
     d="m 51.58135,30.703451 c -0.48479,1.13168 -0.78749,2.34138 -0.89249,3.56751 1.62175,-2.50892 3.77507,-4.67291 6.27537,-6.30638 -0.78586,1.36327 -1.57254,2.72573 -2.3584,4.08901 2.6291,-2.32168 5.42389,-4.72876 8.85607,-5.44325 -1.19191,0.9855 -2.26734,2.11143 -3.19757,3.34659 2.9285,-1.45443 6.17775,-2.25761 9.44586,-2.33398 -1.43308,0.42704 -2.80956,1.04133 -4.0835,1.82317 3.61182,-0.43691 7.34259,-0.8656 10.83382,0.1585 -1.15007,-0.23652 -2.35756,-0.1856 -3.48385,0.14782 2.93343,0.0821 5.85291,0.63236 8.61489,1.62444 -1.82272,-0.007 -3.64545,-0.0131 -5.46736,-0.0197 3.67826,1.17932 7.464,2.41694 10.3966,4.93325 -2.50768,-0.46483 -4.95139,-1.26965 -7.24497,-2.38573 1.10086,1.01424 1.97858,2.26911 2.55362,3.65127 -1.89738,-1.46921 -3.95389,-2.72983 -6.12279,-3.75393 1.25754,1.41584 2.30835,3.01563 3.11061,4.73204 -3.00725,-2.09418 -6.1113,-4.04958 -9.29902,-5.85633 1.59058,1.30086 2.99331,2.83167 4.14995,4.53084 -2.78332,-1.89791 -5.7028,-3.59543 -8.7281,-5.07615 2.00894,1.49304 3.80378,3.27515 5.30987,5.27489 -3.55604,-1.79772 -7.29666,-3.22998 -11.14391,-4.26558 2.4839,1.07502 4.82178,2.48675 6.9308,4.18427 -3.05811,-1.08897 -6.1433,-2.09911 -9.25309,-3.03122 2.0073,0.93129 4.02444,1.86916 5.84634,3.12485 -2.83253,-0.89681 -5.71017,-1.65071 -8.61899,-2.25844 1.93675,0.89352 3.81116,1.92254 5.59615,3.08955 -2.95475,-1.08735 -6.02107,-1.86917 -9.13496,-2.32743 1.89819,0.61594 3.73159,1.43308 5.45834,2.43419 -2.31984,-0.1659 -4.65116,-0.18232 -6.97346,-0.0485 1.06969,0.21763 2.13938,0.43444 3.20988,0.65208 -1.74972,0.26936 -5.78318,1.80017 -5.15893,-1.55463 0.22887,-1.22777 1.2198,-2.46293 1.91871,-3.4665 0.70382,-1.01014 2.18776,-2.14674 2.65451,-3.23655"
     style="fill:#668944;fill-opacity:1;fill-rule:nonzero;stroke:none;stroke-width:0.00820781" />
  <path
     id="path61"
     d="m 44.98935,35.218681 c -2.93014,-4.09804 -6.46404,-7.76163 -10.45238,-10.83639 0.15258,0.46893 0.30515,0.93787 0.45692,1.4068 -1.66359,-1.09555 -3.37886,-2.11225 -5.13843,-3.04602 0.38473,0.44841 0.77028,0.89598 1.155,1.34357 -2.11968,-1.26308 -4.38456,-2.27897 -6.7372,-3.0222 0.89249,0.57077 1.78417,1.14154 2.67667,1.71231 -2.83909,-0.4213 -5.71263,-0.61266 -8.58289,-0.57242 0.77354,0.43281 1.54628,0.8656 2.31901,1.2984 -1.67097,0.21927 -3.31241,0.66768 -4.862796,1.32878 1.876046,0.12976 3.737326,0.4829 5.530526,1.05038 -1.30594,0.60526 -2.51179,1.42569 -3.55522,2.41776 2.2903,0.0205 4.58142,-0.0337 6.86845,-0.1626 -0.90809,0.61101 -1.81699,1.22284 -2.72507,1.83385 3.62577,5.7e-4 7.16458,-2.14182 10.71078,-1.38381 -1.45277,0.61019 -2.81858,1.42898 -4.04248,2.42269 2.5208,-0.89188 5.17696,-1.39941 7.84871,-1.49961 -1.55858,0.4558 -3.00397,1.29512 -4.17291,2.42269 2.02945,-0.67588 4.1565,-1.05777 6.29505,-1.12922 -1.89081,0.82207 -3.64463,1.95786 -5.17041,3.34577 2.04914,-0.67342 4.1401,-1.35424 6.2967,-1.35259 2.53229,0.002 5.05147,0.99206 6.90865,2.71587 0.10417,0.0961 0.21409,0.24555 0.13945,0.36628 -0.0755,0.12072 -0.28793,-0.10595 -0.14684,-0.12073 l -1.61929,-0.53956"
     style="fill:#668944;fill-opacity:1;fill-rule:nonzero;stroke:none;stroke-width:0.00820781" />
  <path
     id="path62"
     d="m 47.31493,38.010931 c -1.95562,-1.5226 -3.73569,-3.27022 -5.29346,-5.19851 1.4298,0.84425 2.86042,1.68849 4.29022,2.53191 -3.55604,-2.09172 -6.10884,-5.50237 -8.54434,-8.835 2.04421,1.83878 4.17127,3.58475 6.37298,5.23136 -2.72179,-2.66167 -5.15974,-5.61571 -7.25646,-8.79394 1.72429,1.47989 3.44858,2.95895 5.17287,4.43885 -2.19596,-2.31757 -4.28939,-4.73286 -6.27208,-7.23685 1.5028,1.01999 2.95393,2.11718 4.34518,3.285 -2.12871,-2.25269 -4.13764,-4.61789 -6.01533,-7.08329 1.10168,0.94773 2.26652,1.82154 3.48549,2.6124 -1.27722,-1.52342 -2.55526,-3.04684 -3.83248,-4.57108 1.55449,0.93705 3.06714,1.94308 4.53221,3.01563 -1.22801,-1.81167 -2.56347,-3.55108 -3.99737,-5.204258 1.87687,1.686848 3.53472,3.617608 4.91857,5.729048 -0.48397,-1.48483 -0.7514,-3.03945 -0.79241,-4.59983 0.7432,2.30525 1.48722,4.61132 2.23042,6.91657 -0.0582,-1.4799 0.13699,-2.96964 0.5734,-4.38466 0.34944,2.53685 0.6989,5.07369 1.04835,7.61135 0.105,-1.91516 0.39128,-4.14403 2.04339,-5.11474 -0.82933,2.37423 -1.31086,4.87083 -1.42324,7.38303 0.68578,-1.62114 1.59632,-3.14785 2.69718,-4.5218 -0.82769,2.32249 -1.49789,4.70166 -2.00484,7.11531 0.61605,-1.34603 1.50199,-2.56641 2.58973,-3.56833 -0.76946,1.77882 -1.25754,3.6792 -1.44047,5.60914 0.57257,-1.02985 1.32725,-1.95786 2.21729,-2.72984 -0.64476,1.56284 -1.18945,3.16674 -1.62995,4.79857 0.79241,-0.96662 1.58566,-1.93241 2.37889,-2.89902 -0.41589,1.61622 -0.83179,3.23244 -1.2485,4.84866 0.81948,-1.17931 1.67834,-2.39558 2.91702,-3.12157 -0.58653,1.24173 -1.17797,2.49742 -1.46343,3.84099 -0.28548,1.34356 -0.23954,2.80374 0.4044,4.01673 l -1.00323,-1.12183"
     style="fill:#93ad3f;fill-opacity:1;fill-rule:nonzero;stroke:none;stroke-width:0.00820781" />
  <path
     id="path63"
     d="m 50.56335,38.086491 c 2.77757,-0.3556 5.59615,-0.3901 8.38111,-0.10102 5.06376,0.52561 10.0775,2.16318 14.17904,5.18291 4.10155,3.01974 7.2302,7.48816 8.15879,12.49943 -1.09511,-1.96689 -2.27799,-3.88534 -3.54537,-5.74547 0.61769,1.99646 1.05738,4.04794 1.31085,6.12324 -0.96468,-3.01234 -2.09342,-5.97131 -3.38049,-8.86046 0.21327,3.14539 0.82031,6.26367 1.80714,9.25712 -1.1509,-1.28689 -1.73003,-2.97374 -2.26734,-4.6146 -0.68085,-2.07776 -1.33874,-4.16292 -1.97448,-6.25463 -0.19933,3.29156 0.087,6.6127 0.84738,9.82214 -0.74074,-1.07337 -0.93515,-2.41858 -1.14515,-3.7063 -0.40934,-2.49988 -0.95567,-4.97677 -1.63734,-7.41671 -0.73089,3.59133 -0.35602,7.3042 0.0213,10.94973 -2.02452,-3.86562 -2.46093,-8.36361 -2.46913,-12.72856 -0.83098,3.94611 -1.1148,8.0072 -0.84,12.0305 -1.67015,-4.17852 -1.10659,-9.04197 -3.04171,-13.10387 0.25758,3.262 0.36012,6.53633 0.30763,9.80901 -0.9286,-2.02027 -1.14598,-4.28036 -1.64801,-6.44599 -0.3314,-1.42898 -0.78996,-2.82839 -1.36991,-4.17606 0.283,2.10404 0.71531,4.18756 1.29198,6.23 -2.09015,-2.0408 -2.7669,-5.24368 -4.95221,-7.18347 1.3568,2.34549 2.30589,4.92586 2.79316,7.59082 -1.52906,-2.78815 -3.18937,-5.50402 -4.97354,-8.13613 1.1107,1.97428 1.89984,4.13007 2.3264,6.35566 -1.73085,-2.25516 -3.63151,-4.37891 -5.68064,-6.34827 0.92941,1.23188 1.85964,2.46375 2.78905,3.69563 -1.65867,-1.39202 -3.42972,-2.8366 -5.5658,-3.1807 -0.16242,-0.0263 -0.60129,-5.7e-4 -1.123,0.0238 -1.10168,0.0525 -2.56757,0.10512 -2.55609,-0.32275 0.0221,-0.78183 3.36819,-1.16946 3.95636,-1.24502"
     style="fill:#93ad3f;fill-opacity:1;fill-rule:nonzero;stroke:none;stroke-width:0.00820781" />
  <path
     id="path64"
     d="m 49.76437,40.324391 -1.43062,-0.9354 c -1.39125,-0.47468 -3.0294,-0.0345 -4.05069,1.0241 -1.02046,1.05777 -1.40683,2.66742 -1.04917,4.09393 0.35765,1.42733 1.42241,2.64196 2.7587,3.25462 0.15093,0.069 0.32484,0.13139 0.47988,0.0706 0.12305,-0.0485 0.20426,-0.16343 0.29531,-0.26033 0.49711,-0.53218 1.32234,-0.53874 2.00401,-0.79415 1.16649,-0.43855 1.91297,-1.67453 2.01223,-2.91873 0.10007,-1.24337 -0.35766,-2.47771 -1.01965,-3.53466"
     style="fill:#4f3522;fill-opacity:1;fill-rule:nonzero;stroke:none;stroke-width:0.00820781" />
  <path
     id="path65"
     d="m 52.10389,38.819871 -1.37565,1.01342 c -0.93188,1.13825 -1.09429,2.82838 -0.46184,4.15634 0.63246,1.32796 2.00319,2.25351 3.46335,2.41858 1.46015,0.16425 2.96951,-0.40816 4.01049,-1.44622 0.11812,-0.11826 0.23707,-0.25869 0.23461,-0.4254 -0.002,-0.13222 -0.0812,-0.24966 -0.14028,-0.36875 -0.3232,-0.65289 -0.0402,-1.42815 -0.041,-2.1566 -5.5e-4,-1.2483 -0.8966,-2.3808 -2.02453,-2.90969 -1.12874,-0.5297 -2.4437,-0.53299 -3.66514,-0.28168"
     style="fill:#4f3522;fill-opacity:1;fill-rule:nonzero;stroke:none;stroke-width:0.00820781" />
  <path
     id="path66"
     d="m 46.72923,41.825641 c -0.22395,0.92965 -0.20837,2.03177 0.47741,2.69781 0.4602,0.44593 1.12137,0.59786 1.74809,0.73255 1.02784,0.22009 2.05651,0.44019 3.08435,0.66028 0.0861,0.0189 0.17391,0.0369 0.26087,0.0222 0.14027,-0.0247 0.25019,-0.1314 0.34699,-0.23652 0.89496,-0.97154 1.47574,-2.22887 1.63488,-3.54123 0.0812,-0.66603 0.0525,-1.3608 -0.21328,-1.97675 -0.34618,-0.79907 -1.07297,-1.39694 -1.89,-1.6967 -2.59218,-0.95347 -4.84311,0.81632 -5.44931,3.33839"
     style="fill:#755032;fill-opacity:1;fill-rule:nonzero;stroke:none;stroke-width:0.00820781" />
  <path
     id="path67"
     d="m 33.97342,41.061881 c 2.13772,0.11086 4.27627,0.22173 6.41482,0.3326 -4.30581,1.21381 -8.21048,3.10679 -11.41379,5.53194 2.7907,-1.02328 5.66834,-1.92583 8.61735,-2.70191 -3.31159,1.19082 -6.5313,2.50974 -9.64519,3.94939 2.28866,-0.76458 4.5765,-1.52917 6.86517,-2.29375 -3.28042,1.63264 -6.46323,3.37041 -9.53856,5.20754 2.28374,-1.14318 4.65936,-2.1878 7.1129,-3.12814 -4.3821,2.09912 -8.48528,4.50703 -12.24476,7.18923 2.7464,-1.53081 5.51084,-3.06901 8.61489,-4.18345 -4.04987,2.68302 -7.95044,5.49252 -11.690229,8.41946 2.522449,-1.60801 5.044909,-3.21602 7.567359,-4.82403 -3.77917,2.78814 -7.59607,5.61243 -10.303088,9.06332 2.934246,-2.41119 5.902128,-4.84292 9.533628,-6.64884 -2.14018,1.85602 -4.30005,3.73505 -5.77333,5.95242 1.74972,-1.7969 3.72174,-3.4624 5.88572,-4.97267 -0.32403,2.15414 -2.58562,3.89929 -2.43632,6.09614 1.62093,-2.32661 3.24186,-4.65321 4.86279,-6.97981 -1.00488,1.74023 -1.71362,3.59379 -2.10327,5.50484 1.54382,-2.9491 3.40018,-5.78817 5.54529,-8.48351 -0.3109,1.4569 -0.62179,2.9138 -0.93187,4.37069 -0.0919,0.43362 -0.16488,0.92801 0.20836,1.29676 1.07542,-2.73066 2.15084,-5.46214 3.22627,-8.19362 -0.84656,2.03096 -1.18534,4.21138 -0.99503,6.40082 0.91136,-2.79553 1.82355,-5.59106 2.73491,-8.38577 -0.6423,2.26665 -1.10905,4.57271 -1.39699,6.90342 1.63078,-2.6592 2.68898,-5.52455 3.74061,-8.37675 -0.55945,1.95622 -0.91054,3.95843 -1.04835,5.98281 1.30183,-2.86288 2.60366,-5.72576 3.90549,-8.58863 -0.38144,1.9907 -0.76289,3.98141 -1.14433,5.97295 1.75792,-2.90887 3.13605,-5.96803 4.11057,-9.12245 -0.18785,1.98414 -0.79488,3.9034 -1.39945,5.81363 1.55202,-1.8782 2.64058,-3.99209 3.20085,-6.21522 -0.23215,1.37477 -0.58078,2.73065 -1.04344,4.05697 1.24934,-1.79278 2.3666,-3.64306 3.34441,-5.54261 -0.48891,1.17849 -0.97781,2.35698 -1.46672,3.53548 0.97371,-1.4569 1.94578,-2.91297 2.9203,-4.36905 1.10086,-1.64414 0.28875,-1.8938 -1.91952,-1.4725 -4.06709,0.7769 -8.0497,1.74598 -11.91745,2.9023"
     style="fill:#93ad3f;fill-opacity:1;fill-rule:nonzero;stroke:none;stroke-width:0.00820781" />
  <path
     id="path68"
     d="m 49.08188,42.730651 c -0.082,0 -0.16325,-0.0148 -0.23953,-0.0452 -0.4479,-0.17985 -0.5652,-0.75637 -0.557,-1.23926 0.009,-0.51082 0.0927,-1.03478 0.36094,-1.4684 0.22559,-0.36299 0.69481,-0.75227 1.15089,-0.75227 0.008,0 0.0164,0 0.0255,5.7e-4 0.31909,0.01 1.12053,0.40734 1.15499,0.75637 0.009,0.0854 -0.0344,0.16754 -0.0837,0.23734 -0.26742,0.38106 -0.75057,0.59459 -0.94253,1.01918 -0.17636,0.3942 -0.0656,0.89926 -0.33222,1.23844 -0.12715,0.16179 -0.33305,0.25295 -0.53731,0.25295"
     style="fill:#8f7159;fill-opacity:1;fill-rule:nonzero;stroke:none;stroke-width:0.00820781" />
  <path
     id="path69"
     d="m 46.6636,65.049771 c -0.0648,0.0123 -0.12878,0.032 -0.19113,0.0616 0.0656,-0.0148 0.12961,-0.0361 0.19113,-0.0616"
     style="fill:#7f5737;fill-opacity:1;fill-rule:nonzero;stroke:none;stroke-width:0.00820781" />
  <path
     id="path70"
     d="m 54.77728,86.627291 c -3.92354,-5.67648 -5.87751,-16.93335 -6.64286,-26.42371 -0.42738,-5.30364 -0.25184,-10.13013 0.0755,-13.85696 -0.13043,-0.007 -0.25348,0.0107 -0.36094,0.0583 -0.041,0.0189 -1.35515,2.81442 -1.36992,2.79635 0.61851,0.79087 0.80965,1.89873 0.49219,2.85138 -0.26414,0.79416 -0.82359,1.74434 -0.25266,2.35453 0.11731,0.12483 0.27234,0.21435 0.37324,0.35232 0.14848,0.20284 0.15668,0.47139 0.16571,0.7227 0.0558,1.53163 0.35273,3.05833 0.24937,4.5875 -0.10336,1.52917 -0.69808,3.13718 -1.99499,3.95185 0.65706,-0.0953 1.31496,-0.19053 1.97202,-0.28579 0.0468,0.55188 -0.31254,1.1054 -0.82031,1.314 0.41098,-0.0772 0.86461,0.16917 1.11152,0.52478 0.28629,0.41227 0.36339,0.93047 0.4323,1.42733 0.14602,1.0512 0.29203,2.12047 0.12961,3.16921 -0.16242,1.04955 -0.68167,2.09418 -1.59058,2.63949 0.60375,0.43608 1.61929,-0.68493 2.08441,-0.10348 0.25511,0.31947 -0.023,0.77773 -0.29203,1.08405 0.28218,0.0534 0.56437,0.10594 0.84738,0.15932 -0.59145,0.99864 -1.27804,1.94144 -2.04913,2.80868 0.31581,0.22585 0.75386,0.0879 1.10659,-0.0731 0.35356,-0.16179 0.75961,-0.34082 1.11152,-0.17739 0.35191,0.16343 0.33141,0.84917 -0.0558,0.82289 0.79078,0.2513 0.96223,1.32386 0.73418,2.12211 -0.22805,0.79826 -0.70875,1.54395 -0.70218,2.37424 0.43886,-0.046 0.87854,-0.092 1.31823,-0.13797 -0.0894,1.01259 -0.34125,2.01041 -0.74156,2.94335 0.27973,0.0961 0.58078,-0.0353 0.85722,-0.14043 0.27645,-0.10512 0.61524,-0.17821 0.84738,0.006 0.23215,0.18397 0.0919,0.68493 -0.19194,0.60281 0.62999,0.59786 1.26081,1.19656 1.8908,1.79443 0.22723,0.21599 0.46183,0.44265 0.57012,0.73748 0.48562,1.32221 -1.82683,2.51302 -1.28707,3.8147 0.87938,-0.63072 1.75793,-1.26226 2.6373,-1.8938 0.0303,0.5141 0.0615,1.02739 0.0919,1.54149 0.30844,-0.42048 1.10906,-0.23406 1.19929,0.27923 0.26251,-0.0296 0.525,-0.0591 0.7875,-0.0887 -0.62015,1.26144 -1.24031,2.522872 -1.86046,3.783492 0.87445,-0.65042 1.76613,-1.27704 2.67421,-1.879832 -0.28219,1.335352 -0.75797,2.629642 -1.40929,3.827842 1.56679,-0.14207 2.44698,-2.41119 4.00967,-2.23051 0.0607,0.47222 -0.0673,0.96579 -0.35027,1.34931 0.29039,-0.21681 0.58078,-0.43444 0.87117,-0.65207 0.16898,0.44922 0.85968,0.57734 1.17796,0.21763 0.0271,0.3827 0.055,0.76541 0.082,1.14811 0.007,0.10265 0.0213,0.21845 0.10336,0.28168 0.10172,0.0772 0.24609,0.032 0.36422,-0.0173 0.93023,-0.38353 1.88097,-0.78019 2.62745,-1.45608 0.055,-0.0501 0.10828,-0.10183 0.16078,-0.15521 v -0.005 c 0,0 -8.18013,-4.524262 -11.1841,-8.871142"
     style="fill:#7f5737;fill-opacity:1;fill-rule:nonzero;stroke:none;stroke-width:0.00820781" />
  <path
     id="path55-4"
     d="m 134.33424,20.771375 c -3.47237,-2.89574 -7.57146,-5.03263 -11.9314,-6.22015 0.56929,0.82042 1.44046,1.36984 2.28784,1.89708 -1.17879,-0.0682 -2.35757,-0.1355 -3.53717,-0.20367 1.04425,0.47879 2.0278,1.09062 2.91948,1.81579 -1.94495,-0.33261 -3.93913,-0.37449 -5.89556,-0.12319 0.58569,0.33917 1.13366,0.74488 1.62913,1.20642 -0.83343,-0.0739 -1.68983,0.15685 -2.37234,0.63975 0.34699,0.20449 0.63246,0.5141 0.80719,0.87709 -0.21902,0.0444 -0.43969,0.0887 -0.65953,0.13223 0.82359,1.69506 2.70046,2.54669 4.3985,3.36055 2.43878,1.16946 4.78814,2.52452 7.02103,4.05123 -3.16476,0.70462 -6.22943,1.8552 -9.07673,3.407361 0.6341,0.12647 1.28543,0.16754 1.93019,0.12154 -0.55699,0.29073 -1.07625,0.65208 -1.543,1.07338 0.47824,0.0846 0.9573,0.17 1.43554,0.25541 -0.31254,0.24062 -0.62589,0.48125 -0.93843,0.7227 1.64471,-0.0493 3.22053,0.58391 4.79389,1.0668 4.26068,1.30743 8.76418,1.54313 13.21436,1.7698 0.37734,0.0189 0.76535,0.0369 1.123,-0.0846 0.58898,-0.20121 0.99996,-0.75637 1.19109,-1.34932 0.44543,-1.38627 -0.14602,-2.87437 -0.75879,-4.19494 -1.39944,-3.016451 -2.96952,-5.952421 -4.70037,-8.791481 l -1.33792,-1.42979"
     style="fill:#111d68;fill-opacity:1;fill-rule:nonzero;stroke:none;stroke-width:0.00820781" />
  <path
     id="path56-6"
     d="m 148.92016,26.597315 c -0.86379,1.04627 -1.55695,2.23298 -2.04421,3.49935 2.18612,-2.62143 4.41408,-5.28146 7.25727,-7.16705 -1.15991,1.29593 -2.18366,2.71423 -3.04909,4.22369 2.35183,-2.54013 5.2344,-4.58422 8.40817,-5.9631 -0.93105,0.88202 -1.78417,1.84535 -2.5487,2.8752 1.40192,-0.79333 2.80628,-1.58255 4.21311,-2.36602 1.23292,-0.68657 2.52163,-1.38545 3.92928,-1.4684 -1.24932,1.20888 -2.49865,2.41776 -3.74799,3.62664 3.18198,-1.37888 6.5354,-2.7865 9.98727,-2.46047 -1.51512,0.85 -2.99495,1.76159 -4.43542,2.7323 3.13686,-0.58719 6.34674,-0.78593 9.532,-0.58965 -2.33706,0.56584 -4.62819,1.31811 -6.84631,2.24776 3.12867,-0.21764 6.27865,-0.10594 9.38352,0.33096 -2.05077,0.58884 -4.10154,1.17768 -6.15231,1.76569 2.88256,0.24063 5.76513,0.48043 8.64852,0.72024 -3.13276,0.64303 -5.94806,2.430071 -9.09231,3.015631 -3.67827,0.68409 -7.43693,-0.33097 -11.17507,-0.48372 -3.95226,-0.16179 -7.93322,0.68902 -11.4991,2.3964 -1.0016,0.47961 -3.55605,2.72738 -4.60194,2.42105 -1.2239,-0.35889 -0.99175,-2.57134 -0.64394,-3.41804 0.89988,-2.194381 2.94491,-4.175241 4.47725,-5.938461"
     style="fill:#241696;fill-opacity:1;fill-rule:nonzero;stroke:none;stroke-width:0.00820781" />
  <path
     id="path57-0"
     d="m 139.08793,13.119785 c -0.23789,0.5141 -0.37488,1.07337 -0.40031,1.63921 1.35761,-1.21135 3.11143,-1.96936 4.92349,-2.12868 -0.63573,0.7498 -1.10577,1.64004 -1.36663,2.58776 0.51105,-0.4172 1.10086,-0.73584 1.72922,-0.9354 -0.40606,0.70134 -0.69481,1.47003 -0.84985,2.26582 0.72844,-0.31535 1.4175,-0.72269 2.04504,-1.21052 -0.90973,1.54067 -1.51512,3.26036 -1.7727,5.0318 1.07953,-1.4183 2.41417,-2.97128 4.19507,-2.98688 -1.35187,2.00384 -2.74066,4.1046 -3.05238,6.50183 0.80637,-1.1128 1.78582,-2.09829 2.89324,-2.91133 -0.95156,1.33946 -1.67097,2.84481 -2.11394,4.42736 0.78257,-0.79169 1.56597,-1.58337 2.34855,-2.37505 -0.92367,1.40269 -1.71281,2.89408 -2.35101,4.44789 0.74484,-0.58227 1.37648,-1.30908 1.84898,-2.12787 -1.55531,2.95815 -2.5889,6.191411 -3.03761,9.504331 -0.16242,1.19327 -0.2584,2.43172 -0.81375,3.50017 -0.0779,0.14946 -0.18129,0.30797 -0.34453,0.34821 -0.315,0.078 -0.5291,-0.30961 -0.61605,-0.62251 -0.36832,-1.314 -0.65133,-2.65181 -1.07624,-3.94857 -0.53567,-1.63018 -1.29035,-3.17824 -2.04339,-4.720551 -1.62422,-3.3277 -3.39444,-6.62173 -4.88741,-10.01103 -0.67512,-1.53327 0.16817,-2.43993 1.23375,-3.602 0.38144,-0.41637 3.49205,-2.44487 3.50846,-2.67399"
     style="fill:#3e23b6;fill-opacity:1;fill-rule:nonzero;stroke:none;stroke-width:0.00820781" />
  <path
     id="path58-3"
     d="m 134.06763,31.763796 c 0.98438,0.88203 1.96793,1.76487 2.95148,2.64689 -2.96542,-1.29839 -6.0547,-2.31182 -9.21289,-3.0222 1.69229,0.96661 3.34686,1.9981 4.95877,3.09283 -3.3321,-0.93787 -6.74951,-1.57434 -10.19563,-1.89791 2.04093,0.93541 4.08268,1.87163 6.12361,2.80785 -3.96784,-0.68821 -8.05954,-0.657 -12.01671,0.0928 0.29285,0.49767 0.91218,0.67835 1.47246,0.81631 1.99663,0.49276 3.99408,0.98633 5.99153,1.47908 -4.2976,0.39502 -8.54598,1.32467 -12.61635,2.76022 2.43632,0.22174 4.8792,0.37203 7.32372,0.45169 -4.12944,0.89516 -8.08661,2.57708 -11.59852,4.92832 2.50786,-0.43773 5.02456,-0.81961 7.54947,-1.14565 -3.29682,1.34275 -6.32786,3.33428 -8.87065,5.82759 2.72162,-1.32057 5.41961,-2.68795 8.09382,-4.10214 -2.61104,1.39859 -4.82096,3.5363 -6.30654,6.10025 3.1057,-2.42433 6.21056,-4.84948 9.31544,-7.27464 -1.32071,1.484 -2.35265,3.22423 -3.02367,5.09504 2.22796,-2.57216 4.45592,-5.14349 6.68388,-7.71482 -1.27558,2.29539 -2.55198,4.5916 -3.82756,6.88782 2.3469,-2.85466 4.69463,-5.70851 7.04235,-8.56317 -1.27722,2.2338 -2.55362,4.4676 -3.83002,6.70222 1.35351,-1.07174 2.38546,-2.48839 3.39936,-3.88534 1.12793,-1.55462 2.25585,-3.10843 3.38296,-4.66223 -1.17305,2.31757 -2.34691,4.63513 -3.52077,6.9527 2.03847,-3.10679 4.36897,-6.02141 6.94966,-8.69293 -1.46671,2.45882 -2.93343,4.91847 -4.40014,7.3781 2.0237,-2.64524 4.06545,-5.31102 6.57888,-7.49472 -0.85066,1.78787 -1.90229,3.47881 -3.1303,5.03098 2.34854,-1.26883 3.70534,-3.97321 6.13181,-5.08436 -1.09593,0.87956 -2.04995,1.9365 -2.81448,3.11582 1.86703,-1.30907 3.88335,-2.40544 5.9981,-3.25872 -1.46343,0.87053 -2.82186,1.91927 -4.0351,3.11582 1.753,-0.87052 3.54374,-1.66302 5.36564,-2.37587 -0.93514,0.48043 -1.74069,1.21217 -2.30916,2.09747 0.42082,-0.65536 3.35014,-1.17603 4.11713,-1.37313 -0.28547,0.2628 -0.60129,0.49768 -0.88512,0.76048 3.0614,-0.4985 1.27886,-2.55901 -0.31089,-3.7334 -2.03601,-1.50453 -4.22542,-2.80129 -6.52557,-3.85906"
     style="fill:#445d89;fill-opacity:1;fill-rule:nonzero;stroke:none;stroke-width:0.00820781" />
  <path
     id="path59-2"
     d="m 153.06928,103.81042 c -0.2707,-0.40077 -5.9054,-4.820742 -9.36383,-13.827394 -3.03596,-7.90863 -3.57327,-17.99687 -3.94733,-28.25756 -0.39538,-10.82243 2.05816,-23.73824 2.05816,-23.73824 l 2.68816,0.83522 c 0,0 -2.0918,9.52403 -1.12957,21.45434 0.76535,9.49036 2.71932,20.74723 6.64286,26.42371 3.00397,4.34688 11.1841,8.871142 11.1841,8.871142 0,0 -0.24692,3.49278 -2.92194,4.851132 l -5.21061,3.38765"
     style="fill:#95693f;fill-opacity:1;fill-rule:nonzero;stroke:none;stroke-width:0.00820781" />
  <path
     id="path60-6"
     d="m 146.8218,30.776656 c -0.48479,1.13168 -0.78749,2.34138 -0.89249,3.56751 1.62175,-2.50892 3.77507,-4.672911 6.27537,-6.306381 -0.78586,1.36327 -1.57254,2.725731 -2.3584,4.089011 2.6291,-2.321681 5.42389,-4.728761 8.85607,-5.443251 -1.19191,0.9855 -2.26734,2.11143 -3.19757,3.34659 2.9285,-1.45443 6.17775,-2.25761 9.44586,-2.33398 -1.43308,0.42704 -2.80956,1.04133 -4.0835,1.82317 3.61182,-0.43691 7.34259,-0.8656 10.83382,0.1585 -1.15007,-0.23652 -2.35756,-0.1856 -3.48385,0.14782 2.93343,0.0821 5.85291,0.63236 8.61489,1.624441 -1.82272,-0.007 -3.64545,-0.0131 -5.46736,-0.0197 3.67826,1.17932 7.464,2.41694 10.3966,4.93325 -2.50768,-0.46483 -4.95139,-1.26965 -7.24497,-2.38573 1.10086,1.01424 1.97858,2.26911 2.55362,3.65127 -1.89738,-1.46921 -3.95389,-2.72983 -6.12279,-3.75393 1.25754,1.41584 2.30835,3.01563 3.11061,4.73204 -3.00725,-2.09418 -6.1113,-4.04958 -9.29902,-5.85633 1.59058,1.30086 2.99331,2.83167 4.14995,4.53084 -2.78332,-1.89791 -5.7028,-3.59543 -8.7281,-5.07615 2.00894,1.49304 3.80378,3.27515 5.30987,5.27489 -3.55604,-1.79772 -7.29666,-3.22998 -11.14391,-4.26558 2.4839,1.07502 4.82178,2.48675 6.9308,4.18427 -3.05811,-1.08897 -6.1433,-2.09911 -9.25309,-3.03122 2.0073,0.93129 4.02444,1.86916 5.84634,3.12485 -2.83253,-0.89681 -5.71017,-1.65071 -8.61899,-2.25844 1.93675,0.89352 3.81116,1.92254 5.59615,3.08955 -2.95475,-1.08735 -6.02107,-1.86917 -9.13496,-2.32743 1.89819,0.61594 3.73159,1.43308 5.45834,2.43419 -2.31984,-0.1659 -4.65116,-0.18232 -6.97346,-0.0485 1.06969,0.21763 2.13938,0.43444 3.20988,0.65208 -1.74972,0.26936 -5.78318,1.80017 -5.15893,-1.55463 0.22887,-1.22777 1.2198,-2.46293 1.91871,-3.4665 0.70382,-1.01014 2.18776,-2.14674 2.65451,-3.23655"
     style="fill:#445d89;fill-opacity:1;fill-rule:nonzero;stroke:none;stroke-width:0.00820781" />
  <path
     id="path61-9"
     d="m 140.2298,35.291886 c -2.93014,-4.09804 -6.46404,-7.761631 -10.45238,-10.836391 0.15258,0.46893 0.30515,0.93787 0.45692,1.4068 -1.66359,-1.09555 -3.37886,-2.11225 -5.13843,-3.04602 0.38473,0.44841 0.77028,0.89598 1.155,1.34357 -2.11968,-1.26308 -4.38456,-2.27897 -6.7372,-3.0222 0.89249,0.57077 1.78417,1.14154 2.67667,1.71231 -2.83909,-0.4213 -5.71263,-0.61266 -8.58289,-0.57242 0.77354,0.43281 1.54628,0.8656 2.31901,1.2984 -1.67097,0.21927 -3.31241,0.66768 -4.86279,1.32878 1.87604,0.12976 3.73732,0.4829 5.53052,1.05038 -1.30594,0.60526 -2.51179,1.42569 -3.55522,2.41776 2.2903,0.0205 4.58142,-0.0337 6.86845,-0.1626 -0.90809,0.61101 -1.81699,1.22284 -2.72507,1.83385 3.62577,5.7e-4 7.16458,-2.14182 10.71078,-1.38381 -1.45277,0.61019 -2.81858,1.42898 -4.04248,2.422691 2.5208,-0.891881 5.17696,-1.399411 7.84871,-1.499611 -1.55858,0.4558 -3.00397,1.295121 -4.17291,2.422691 2.02945,-0.67588 4.1565,-1.05777 6.29505,-1.12922 -1.89081,0.82207 -3.64463,1.95786 -5.17041,3.34577 2.04914,-0.67342 4.1401,-1.35424 6.2967,-1.35259 2.53229,0.002 5.05147,0.99206 6.90865,2.71587 0.10417,0.0961 0.21409,0.24555 0.13945,0.36628 -0.0755,0.12072 -0.28793,-0.10595 -0.14684,-0.12073 l -1.61929,-0.53956"
     style="fill:#445f89;fill-opacity:1;fill-rule:nonzero;stroke:none;stroke-width:0.00820781" />
  <path
     id="path62-4"
     d="m 142.55538,38.084136 c -1.95562,-1.5226 -3.73569,-3.27022 -5.29346,-5.19851 1.4298,0.84425 2.86042,1.68849 4.29022,2.53191 -3.55604,-2.09172 -6.10884,-5.502371 -8.54434,-8.835001 2.04421,1.83878 4.17127,3.58475 6.37298,5.231361 -2.72179,-2.661671 -5.15974,-5.615711 -7.25646,-8.793941 1.72429,1.47989 3.44858,2.95895 5.17287,4.43885 -2.19596,-2.31757 -4.28939,-4.73286 -6.27208,-7.23685 1.5028,1.01999 2.95393,2.11718 4.34518,3.285 -2.12871,-2.25269 -4.13764,-4.61789 -6.01533,-7.08329 1.10168,0.94773 2.26652,1.82154 3.48549,2.6124 -1.27722,-1.52342 -2.55526,-3.04684 -3.83248,-4.57108 1.55449,0.93705 3.06714,1.94308 4.53221,3.01563 -1.22801,-1.81167 -2.56347,-3.55108 -3.99737,-5.20426 1.87687,1.68685 3.53472,3.61761 4.91857,5.72905 -0.48397,-1.48483 -0.7514,-3.03945 -0.79241,-4.59983 0.7432,2.30525 1.48722,4.61132 2.23042,6.91657 -0.0582,-1.4799 0.13699,-2.96964 0.5734,-4.38466 0.34944,2.53685 0.6989,5.07369 1.04835,7.61135 0.105,-1.91516 0.39128,-4.14403 2.04339,-5.11474 -0.82933,2.37423 -1.31086,4.87083 -1.42324,7.38303 0.68578,-1.62114 1.59632,-3.14785 2.69718,-4.5218 -0.82769,2.32249 -1.49789,4.70166 -2.00484,7.11531 0.61605,-1.34603 1.50199,-2.56641 2.58973,-3.56833 -0.76946,1.77882 -1.25754,3.6792 -1.44047,5.60914 0.57257,-1.02985 1.32725,-1.95786 2.21729,-2.72984 -0.64476,1.56284 -1.18945,3.166741 -1.62995,4.798571 0.79241,-0.96662 1.58566,-1.932411 2.37889,-2.899021 -0.41589,1.616221 -0.83179,3.232441 -1.2485,4.848661 0.81948,-1.17931 1.67834,-2.39558 2.91702,-3.12157 -0.58653,1.24173 -1.17797,2.49742 -1.46343,3.84099 -0.28548,1.34356 -0.23954,2.80374 0.4044,4.01673 l -1.00323,-1.12183"
     style="fill:#161c74;fill-opacity:1;fill-rule:nonzero;stroke:none;stroke-width:0.00820781" />
  <path
     id="path63-1"
     d="m 145.8038,38.159696 c 2.77757,-0.3556 5.59615,-0.3901 8.38111,-0.10102 5.06376,0.52561 10.0775,2.16318 14.17904,5.18291 4.10155,3.01974 7.2302,7.48816 8.15879,12.49943 -1.09511,-1.96689 -2.27799,-3.88534 -3.54537,-5.74547 0.61769,1.99646 1.05738,4.04794 1.31085,6.12324 -0.96468,-3.01234 -2.09342,-5.97131 -3.38049,-8.86046 0.21327,3.14539 0.82031,6.26367 1.80714,9.25712 -1.1509,-1.28689 -1.73003,-2.97374 -2.26734,-4.6146 -0.68085,-2.07776 -1.33874,-4.16292 -1.97448,-6.25463 -0.19933,3.29156 0.087,6.6127 0.84738,9.82214 -0.74074,-1.07337 -0.93515,-2.41858 -1.14515,-3.7063 -0.40934,-2.49988 -0.95567,-4.97677 -1.63734,-7.41671 -0.73089,3.59133 -0.35602,7.3042 0.0213,10.94973 -2.02452,-3.86562 -2.46093,-8.36361 -2.46913,-12.72856 -0.83098,3.94611 -1.1148,8.0072 -0.84,12.0305 -1.67015,-4.17852 -1.10659,-9.04197 -3.04171,-13.10387 0.25758,3.262 0.36012,6.53633 0.30763,9.80901 -0.9286,-2.02027 -1.14598,-4.28036 -1.64801,-6.44599 -0.3314,-1.42898 -0.78996,-2.82839 -1.36991,-4.17606 0.283,2.10404 0.71531,4.18756 1.29198,6.23 -2.09015,-2.0408 -2.7669,-5.24368 -4.95221,-7.18347 1.3568,2.34549 2.30589,4.92586 2.79316,7.59082 -1.52906,-2.78815 -3.18937,-5.50402 -4.97354,-8.13613 1.1107,1.97428 1.89984,4.13007 2.3264,6.35566 -1.73085,-2.25516 -3.63151,-4.37891 -5.68064,-6.34827 0.92941,1.23188 1.85964,2.46375 2.78905,3.69563 -1.65867,-1.39202 -3.42972,-2.8366 -5.5658,-3.1807 -0.16242,-0.0263 -0.60129,-5.7e-4 -1.123,0.0238 -1.10168,0.0525 -2.56757,0.10512 -2.55609,-0.32275 0.0221,-0.78183 3.36819,-1.16946 3.95636,-1.24502"
     style="fill:#3f84ad;fill-opacity:1;fill-rule:nonzero;stroke:none;stroke-width:0.00820781" />
  <path
     id="path64-3"
     d="m 145.00482,40.397596 -1.43062,-0.9354 c -1.39125,-0.47468 -3.0294,-0.0345 -4.05069,1.0241 -1.02046,1.05777 -1.40683,2.66742 -1.04917,4.09393 0.35765,1.42733 1.42241,2.64196 2.7587,3.25462 0.15093,0.069 0.32484,0.13139 0.47988,0.0706 0.12305,-0.0485 0.20426,-0.16343 0.29531,-0.26033 0.49711,-0.53218 1.32234,-0.53874 2.00401,-0.79415 1.16649,-0.43855 1.91297,-1.67453 2.01223,-2.91873 0.10007,-1.24337 -0.35766,-2.47771 -1.01965,-3.53466"
     style="fill:#4f3522;fill-opacity:1;fill-rule:nonzero;stroke:none;stroke-width:0.00820781" />
  <path
     id="path65-7"
     d="m 147.34434,38.893076 -1.37565,1.01342 c -0.93188,1.13825 -1.09429,2.82838 -0.46184,4.15634 0.63246,1.32796 2.00319,2.25351 3.46335,2.41858 1.46015,0.16425 2.96951,-0.40816 4.01049,-1.44622 0.11812,-0.11826 0.23707,-0.25869 0.23461,-0.4254 -0.002,-0.13222 -0.0812,-0.24966 -0.14028,-0.36875 -0.3232,-0.65289 -0.0402,-1.42815 -0.041,-2.1566 -5.5e-4,-1.2483 -0.8966,-2.3808 -2.02453,-2.90969 -1.12874,-0.5297 -2.4437,-0.53299 -3.66514,-0.28168"
     style="fill:#4f3522;fill-opacity:1;fill-rule:nonzero;stroke:none;stroke-width:0.00820781" />
  <path
     id="path66-8"
     d="m 141.96968,41.898846 c -0.22395,0.92965 -0.20837,2.03177 0.47741,2.69781 0.4602,0.44593 1.12137,0.59786 1.74809,0.73255 1.02784,0.22009 2.05651,0.44019 3.08435,0.66028 0.0861,0.0189 0.17391,0.0369 0.26087,0.0222 0.14027,-0.0247 0.25019,-0.1314 0.34699,-0.23652 0.89496,-0.97154 1.47574,-2.22887 1.63488,-3.54123 0.0812,-0.66603 0.0525,-1.3608 -0.21328,-1.97675 -0.34618,-0.79907 -1.07297,-1.39694 -1.89,-1.6967 -2.59218,-0.95347 -4.84311,0.81632 -5.44931,3.33839"
     style="fill:#755032;fill-opacity:1;fill-rule:nonzero;stroke:none;stroke-width:0.00820781" />
  <path
     id="path67-8"
     d="m 129.21387,41.135086 c 2.13772,0.11086 4.27627,0.22173 6.41482,0.3326 -4.30581,1.21381 -8.21048,3.10679 -11.41379,5.53194 2.7907,-1.02328 5.66834,-1.92583 8.61735,-2.70191 -3.31159,1.19082 -6.5313,2.50974 -9.64519,3.94939 2.28866,-0.76458 4.5765,-1.52917 6.86517,-2.29375 -3.28042,1.63264 -6.46323,3.37041 -9.53856,5.20754 2.28374,-1.14318 4.65936,-2.1878 7.1129,-3.12814 -4.3821,2.09912 -8.48528,4.50703 -12.24476,7.18923 2.7464,-1.53081 5.51084,-3.06901 8.61489,-4.18345 -4.04987,2.68302 -7.95044,5.49252 -11.69023,8.41946 2.52245,-1.60801 5.04491,-3.21602 7.56736,-4.82403 -3.77917,2.78814 -7.59607,5.61243 -10.30308,9.06332 2.93424,-2.41119 5.90212,-4.84292 9.53362,-6.64884 -2.14018,1.85602 -4.30005,3.73505 -5.77333,5.95242 1.74972,-1.7969 3.72174,-3.4624 5.88572,-4.97267 -0.32403,2.15414 -2.58562,3.89929 -2.43632,6.09614 1.62093,-2.32661 3.24186,-4.65321 4.86279,-6.97981 -1.00488,1.74023 -1.71362,3.59379 -2.10327,5.50484 1.54382,-2.9491 3.40018,-5.78817 5.54529,-8.48351 -0.3109,1.4569 -0.62179,2.9138 -0.93187,4.37069 -0.0919,0.43362 -0.16488,0.92801 0.20836,1.29676 1.07542,-2.73066 2.15084,-5.46214 3.22627,-8.19362 -0.84656,2.03096 -1.18534,4.21138 -0.99503,6.40082 0.91136,-2.79553 1.82355,-5.59106 2.73491,-8.38577 -0.6423,2.26665 -1.10905,4.57271 -1.39699,6.90342 1.63078,-2.6592 2.68898,-5.52455 3.74061,-8.37675 -0.55945,1.95622 -0.91054,3.95843 -1.04835,5.98281 1.30183,-2.86288 2.60366,-5.72576 3.90549,-8.58863 -0.38144,1.9907 -0.76289,3.98141 -1.14433,5.97295 1.75792,-2.90887 3.13605,-5.96803 4.11057,-9.12245 -0.18785,1.98414 -0.79488,3.9034 -1.39945,5.81363 1.55202,-1.8782 2.64058,-3.99209 3.20085,-6.21522 -0.23215,1.37477 -0.58078,2.73065 -1.04344,4.05697 1.24934,-1.79278 2.3666,-3.64306 3.34441,-5.54261 -0.48891,1.17849 -0.97781,2.35698 -1.46672,3.53548 0.97371,-1.4569 1.94578,-2.91297 2.9203,-4.36905 1.10086,-1.64414 0.28875,-1.8938 -1.91952,-1.4725 -4.06709,0.7769 -8.0497,1.74598 -11.91745,2.9023"
     style="fill:#3f46ad;fill-opacity:1;fill-rule:nonzero;stroke:none;stroke-width:0.00820781" />
  <path
     id="path68-3"
     d="m 144.32233,42.803856 c -0.082,0 -0.16325,-0.0148 -0.23953,-0.0452 -0.4479,-0.17985 -0.5652,-0.75637 -0.557,-1.23926 0.009,-0.51082 0.0927,-1.03478 0.36094,-1.4684 0.22559,-0.36299 0.69481,-0.75227 1.15089,-0.75227 0.008,0 0.0164,0 0.0255,5.7e-4 0.31909,0.01 1.12053,0.40734 1.15499,0.75637 0.009,0.0854 -0.0344,0.16754 -0.0837,0.23734 -0.26742,0.38106 -0.75057,0.59459 -0.94253,1.01918 -0.17636,0.3942 -0.0656,0.89926 -0.33222,1.23844 -0.12715,0.16179 -0.33305,0.25295 -0.53731,0.25295"
     style="fill:#8f7159;fill-opacity:1;fill-rule:nonzero;stroke:none;stroke-width:0.00820781" />
  <path
     id="path69-8"
     d="m 141.90405,65.122976 c -0.0648,0.0123 -0.12878,0.032 -0.19113,0.0616 0.0656,-0.0148 0.12961,-0.0361 0.19113,-0.0616"
     style="fill:#7f5737;fill-opacity:1;fill-rule:nonzero;stroke:none;stroke-width:0.00820781" />
  <path
     id="path70-1"
     d="m 150.01773,86.700496 c -3.92354,-5.67648 -5.87751,-16.93335 -6.64286,-26.42371 -0.42738,-5.30364 -0.25184,-10.13013 0.0755,-13.85696 -0.13043,-0.007 -0.25348,0.0107 -0.36094,0.0583 -0.041,0.0189 -1.35515,2.81442 -1.36992,2.79635 0.61851,0.79087 0.80965,1.89873 0.49219,2.85138 -0.26414,0.79416 -0.82359,1.74434 -0.25266,2.35453 0.11731,0.12483 0.27234,0.21435 0.37324,0.35232 0.14848,0.20284 0.15668,0.47139 0.16571,0.7227 0.0558,1.53163 0.35273,3.05833 0.24937,4.5875 -0.10336,1.52917 -0.69808,3.13718 -1.99499,3.95185 0.65706,-0.0953 1.31496,-0.19053 1.97202,-0.28579 0.0468,0.55188 -0.31254,1.1054 -0.82031,1.314 0.41098,-0.0772 0.86461,0.16917 1.11152,0.52478 0.28629,0.41227 0.36339,0.93047 0.4323,1.42733 0.14602,1.0512 0.29203,2.12047 0.12961,3.16921 -0.16242,1.04955 -0.68167,2.09418 -1.59058,2.63949 0.60375,0.43608 1.61929,-0.68493 2.08441,-0.10348 0.25511,0.31947 -0.023,0.77773 -0.29203,1.08405 0.28218,0.0534 0.56437,0.10594 0.84738,0.15932 -0.59145,0.99864 -1.27804,1.94144 -2.04913,2.80868 0.31581,0.22585 0.75386,0.0879 1.10659,-0.0731 0.35356,-0.16179 0.75961,-0.34082 1.11152,-0.17739 0.35191,0.16343 0.33141,0.84917 -0.0558,0.82289 0.79078,0.2513 0.96223,1.32386 0.73418,2.12211 -0.22805,0.79826 -0.70875,1.54395 -0.70218,2.37424 0.43886,-0.046 0.87854,-0.092 1.31823,-0.13797 -0.0894,1.01259 -0.34125,2.01041 -0.74156,2.94335 0.27973,0.0961 0.58078,-0.0353 0.85722,-0.14043 0.27645,-0.10512 0.61524,-0.17821 0.84738,0.006 0.23215,0.18397 0.0919,0.68493 -0.19194,0.60281 0.62999,0.59786 1.26081,1.19656 1.8908,1.79443 0.22723,0.21599 0.46183,0.44265 0.57012,0.73748 0.48562,1.32221 -1.82683,2.51302 -1.28707,3.8147 0.87938,-0.63072 1.75793,-1.26226 2.6373,-1.8938 0.0303,0.5141 0.0615,1.02739 0.0919,1.54149 0.30844,-0.42048 1.10906,-0.23406 1.19929,0.27923 0.26251,-0.0296 0.525,-0.0591 0.7875,-0.0887 -0.62015,1.26144 -1.24031,2.522872 -1.86046,3.783492 0.87445,-0.65042 1.76613,-1.27704 2.67421,-1.879832 -0.28219,1.335352 -0.75797,2.629642 -1.40929,3.827842 1.56679,-0.14207 2.44698,-2.41119 4.00967,-2.23051 0.0607,0.47222 -0.0673,0.96579 -0.35027,1.34931 0.29039,-0.21681 0.58078,-0.43444 0.87117,-0.65207 0.16898,0.44922 0.85968,0.57734 1.17796,0.21763 0.0271,0.3827 0.055,0.76541 0.082,1.14811 0.007,0.10265 0.0213,0.21845 0.10336,0.28168 0.10172,0.0772 0.24609,0.032 0.36422,-0.0173 0.93023,-0.38353 1.88097,-0.78019 2.62745,-1.45608 0.055,-0.0501 0.10828,-0.10183 0.16078,-0.15521 v -0.005 c 0,0 -8.18013,-4.524262 -11.1841,-8.871142"
     style="fill:#7f5737;fill-opacity:1;fill-rule:nonzero;stroke:none;stroke-width:0.00820781" />
</svg>
