<?xml version="1.0" encoding="UTF-8" standalone="no"?>
<!-- Created with Inkscape (http://www.inkscape.org/) -->

<svg
   width="200mm"
   height="109.99999mm"
   viewBox="0 0 200 109.99999"
   version="1.1"
   id="svg1"
   inkscape:version="1.3.2 (091e20e, 2023-11-25, custom)"
   sodipodi:docname="dibuix.svg"
   inkscape:export-filename="dibuix.svg"
   inkscape:export-xdpi="96"
   inkscape:export-ydpi="96"
   xmlns:inkscape="http://www.inkscape.org/namespaces/inkscape"
   xmlns:sodipodi="http://sodipodi.sourceforge.net/DTD/sodipodi-0.dtd"
   xmlns="http://www.w3.org/2000/svg"
   xmlns:svg="http://www.w3.org/2000/svg">
  <sodipodi:namedview
     id="namedview1"
     pagecolor="#ffffff"
     bordercolor="#666666"
     borderopacity="1.0"
     inkscape:showpageshadow="2"
     inkscape:pageopacity="0.0"
     inkscape:pagecheckerboard="0"
     inkscape:deskcolor="#d1d1d1"
     inkscape:document-units="mm"
     inkscape:zoom="0.72426347"
     inkscape:cx="396.26464"
     inkscape:cy="340.34576"
     inkscape:window-width="1920"
     inkscape:window-height="1009"
     inkscape:window-x="-8"
     inkscape:window-y="-8"
     inkscape:window-maximized="1"
     inkscape:current-layer="layer1" />
  <defs
     id="defs1" />
  <g
     inkscape:label="Capa 1"
     inkscape:groupmode="layer"
     id="layer1">
    <path
       id="path55"
       d="m 34.434624,17.242063 c -3.474729,-2.63871 -7.576601,-4.58593 -11.939509,-5.66805 0.569685,0.7476 1.441446,1.24825 2.289399,1.7287 -1.179586,-0.0621 -2.359171,-0.12348 -3.539575,-0.18559 1.044961,0.43629 2.029182,0.99382 2.921462,1.65461 -1.946272,-0.30308 -3.941803,-0.34125 -5.89957,-0.11225 0.586098,0.30907 1.13444,0.67876 1.630241,1.09934 -0.833996,-0.0674 -1.690981,0.14293 -2.373946,0.58296 0.347226,0.18635 0.632888,0.46848 0.807732,0.79925 -0.219171,0.0404 -0.43998,0.0808 -0.659976,0.12049 0.824152,1.5446 2.702297,2.32065 4.401491,3.06227 2.440436,1.06566 4.791394,2.30045 7.025797,3.69164 -3.166903,0.64209 -6.233665,1.69054 -9.082893,3.10493 0.634532,0.11525 1.286302,0.15267 1.931503,0.11076 -0.557372,0.26492 -1.076981,0.59419 -1.54405,0.9781 0.478563,0.0771 0.957951,0.15491 1.436515,0.23274 -0.312751,0.21927 -0.62632,0.43853 -0.93907,0.65855 1.645835,-0.0449 3.222718,0.53209 4.797145,0.97212 4.263579,1.19138 8.770136,1.40616 13.223336,1.61271 0.377602,0.0172 0.765868,0.0337 1.12377,-0.0771 0.58938,-0.18334 1.000634,-0.68923 1.191898,-1.22954 0.445731,-1.26323 -0.146118,-2.61925 -0.759305,-3.82261 -1.400395,-2.74871 -2.971533,-5.42409 -4.703566,-8.01115 l -1.338829,-1.30289"
       style="fill:#566e3e;fill-opacity:1;fill-rule:nonzero;stroke:none;stroke-width:0.00783772" />
    <path
       id="path56"
       d="m 49.030447,22.550903 c -0.864368,0.9534 -1.558002,2.03478 -2.045596,3.18874 2.187608,-2.38875 4.41708,-4.81268 7.262207,-6.5309 -1.160709,1.1809 -2.185151,2.47332 -3.051162,3.84879 2.353421,-2.31466 5.23795,-4.17732 8.41388,-5.43381 -0.931682,0.80373 -1.785385,1.68156 -2.550428,2.62 1.402855,-0.72292 2.808182,-1.44209 4.215969,-2.15602 1.233762,-0.62563 2.523342,-1.26248 3.931947,-1.33806 -1.250176,1.10158 -2.500357,2.20316 -3.750538,3.30474 3.184142,-1.25649 6.539846,-2.53917 9.994055,-2.24208 -1.516144,0.77455 -2.996985,1.60523 -4.43843,2.48979 3.138997,-0.53508 6.351044,-0.71618 9.538474,-0.53732 -2.338652,0.51561 -4.631331,1.20111 -6.850952,2.04825 3.130782,-0.19832 6.28291,-0.0965 9.389893,0.30159 -2.05217,0.53657 -4.104336,1.07314 -6.156501,1.60896 2.884525,0.21927 5.769048,0.43779 8.654396,0.65631 -3.134891,0.58596 -5.952104,2.21439 -9.098488,2.74796 -3.680762,0.62339 -7.441976,-0.30158 -11.182667,-0.44078 -3.954934,-0.14742 -7.938597,0.62788 -11.506904,2.18371 -1.002277,0.43704 -3.558455,2.48529 -4.605061,2.20615 -1.224731,-0.32703 -0.992428,-2.3431 -0.644382,-3.11466 0.900492,-1.9996 2.946914,-3.80464 4.480288,-5.41136"
       style="fill:#566e3e;fill-opacity:1;fill-rule:nonzero;stroke:none;stroke-width:0.00783772" />
    <path
       id="path57"
       d="m 39.191542,10.269623 c -0.238048,0.46847 -0.375134,0.9781 -0.400579,1.49372 1.35853,-1.10383 3.113545,-1.79456 4.926837,-1.93974 -0.63617,0.68325 -1.106526,1.49447 -1.367562,2.35807 0.511402,-0.38016 1.101601,-0.67053 1.730389,-0.85238 -0.406329,0.6391 -0.695278,1.33956 -0.850422,2.06472 0.72893,-0.28737 1.418458,-0.65855 2.046421,-1.10308 -0.910337,1.40392 -1.516137,2.97098 -1.773891,4.58518 1.080263,-1.29241 2.415811,-2.70755 4.197913,-2.72177 -1.352791,1.82599 -2.742517,3.74028 -3.054448,5.92474 0.806914,-1.01403 1.78703,-1.91205 2.8952,-2.65293 -0.95221,1.22057 -1.672107,2.59231 -2.115375,4.03439 0.783106,-0.72141 1.567032,-1.44283 2.350139,-2.16424 -0.924294,1.27819 -1.713969,2.6372 -2.352601,4.05309 0.745349,-0.53058 1.377412,-1.19288 1.850231,-1.93899 -1.556363,2.69558 -2.590655,5.64186 -3.039667,8.66073 -0.162531,1.08736 -0.258573,2.21588 -0.814302,3.18949 -0.07798,0.13621 -0.181407,0.28064 -0.344763,0.31731 -0.315213,0.0711 -0.52946,-0.28213 -0.616469,-0.56726 -0.368571,-1.19737 -0.65177,-2.41644 -1.076975,-3.59809 -0.536028,-1.48549 -1.291228,-2.89614 -2.044783,-4.30156 -1.625316,-3.03234 -3.396744,-6.03399 -4.890723,-9.12246 -0.675572,-1.39718 0.168281,-2.22337 1.234587,-3.28229 0.381703,-0.37942 3.494429,-2.22786 3.510843,-2.43665"
       style="fill:#566e3e;fill-opacity:1;fill-rule:nonzero;stroke:none;stroke-width:0.00783772" />
    <path
       id="path58"
       d="m 34.167838,27.258813 c 0.98504,0.80373 1.969261,1.60821 2.953482,2.41195 -2.967433,-1.18315 -6.05882,-2.10662 -9.219155,-2.75395 1.69345,0.88081 3.349136,1.82075 4.962139,2.81831 -3.33436,-0.85463 -6.754093,-1.4346 -10.202551,-1.72945 2.042314,0.85238 4.085453,1.7055 6.127767,2.55863 -3.97053,-0.62712 -8.065015,-0.59869 -12.024875,0.0846 0.293049,0.45351 0.912806,0.61814 1.47346,0.74387 1.997987,0.44901 3.996799,0.89877 5.995605,1.34779 -4.300518,0.35996 -8.551784,1.2071 -12.624924,2.51523 2.437974,0.20205 4.88251,0.339 7.328697,0.41159 -4.132242,0.81571 -8.092103,2.34834 -11.6063985,4.49089 2.509555,-0.39888 5.0279695,-0.74686 7.5545965,-1.04396 -3.299058,1.22356 -6.3321625,3.03833 -8.8766865,5.31034 2.723476,-1.20336 5.4233025,-2.44938 8.0993305,-3.73804 -2.612819,1.27445 -4.8242325,3.22242 -6.3108245,5.55879 3.1078005,-2.20915 6.2147835,-4.41905 9.3217585,-6.62895 -1.321591,1.35228 -2.354245,2.93805 -3.02571,4.64281 2.229472,-2.34385 4.458943,-4.68696 6.688421,-7.03006 -1.276452,2.09166 -2.553716,4.18406 -3.830167,6.27647 2.348501,-2.60129 4.697821,-5.20183 7.047141,-7.80312 -1.278089,2.03553 -2.555359,4.07106 -3.832624,6.10734 1.35443,-0.9766 2.387078,-2.26752 3.401669,-3.54047 1.12869,-1.41664 2.257386,-2.83253 3.385257,-4.24842 -1.173842,2.11186 -2.348502,4.22372 -3.523162,6.33558 2.039851,-2.83103 4.371933,-5.48695 6.954382,-7.92135 -1.46771,2.24058 -2.935419,4.48191 -4.403129,6.72323 2.025076,-2.41045 4.068215,-4.83962 6.583349,-6.8295 -0.851235,1.62917 -1.90359,3.17004 -3.132428,4.58443 2.350146,-1.15621 3.707857,-3.62054 6.13598,-4.63307 -1.096675,0.80149 -2.051345,1.76462 -2.816395,2.83926 1.868294,-1.19288 3.885982,-2.19193 6.002181,-2.96948 -1.464428,0.79326 -2.823783,1.74892 -4.037845,2.83927 1.75419,-0.79326 3.546144,-1.51542 5.369286,-2.165 -0.935788,0.43779 -1.741877,1.10458 -2.310737,1.91131 0.421104,-0.59719 3.352417,-1.07165 4.119929,-1.25125 -0.285661,0.23947 -0.601693,0.4535 -0.885717,0.69297 3.063474,-0.45425 1.279733,-2.33188 -0.311106,-3.40202 -2.037389,-1.37099 -4.228284,-2.55265 -6.529996,-3.51653"
       style="fill:#668944;fill-opacity:1;fill-rule:nonzero;stroke:none;stroke-width:0.00783772" />
    <path
       id="path59"
       d="m 53.182391,92.910623 c -0.270887,-0.3652 -5.909416,-4.39286 -9.370187,-12.60008 -3.03803,-7.20667 -3.575695,-16.39948 -3.95001,-25.74945 -0.39566,-9.86184 2.059552,-21.63124 2.059552,-21.63124 l 2.689978,0.76108 c 0,0 -2.09321,8.67869 -1.130333,19.55006 0.765868,8.64801 2.721172,18.90573 6.647374,24.07837 3.006016,3.96105 11.191698,8.08375 11.191698,8.08375 0,0 -0.247079,3.18276 -2.923924,4.42054 l -5.214148,3.08697"
       style="fill:#95693f;fill-opacity:1;fill-rule:nonzero;stroke:none;stroke-width:0.00783772" />
    <path
       id="path60"
       d="m 46.930674,26.359283 c -0.485133,1.03124 -0.788032,2.13357 -0.893104,3.25086 1.622851,-2.28622 3.777627,-4.25814 6.279629,-5.74663 -0.786387,1.24228 -1.573601,2.4838 -2.359989,3.72607 2.630874,-2.1156 5.427569,-4.30903 8.862072,-4.9601 -1.192719,0.89802 -2.268874,1.92402 -3.199737,3.04955 2.930493,-1.32534 6.181944,-2.05723 9.452277,-2.12683 -1.434052,0.38914 -2.811464,0.94891 -4.086272,1.66135 3.614277,-0.39813 7.34758,-0.78877 10.841183,0.14443 -1.150852,-0.21552 -2.35917,-0.16913 -3.486215,0.13471 2.935418,0.0748 5.85688,0.57623 8.620736,1.48024 -1.823961,-0.006 -3.647928,-0.012 -5.471072,-0.018 3.680763,1.07465 7.469065,2.20242 10.40366,4.49538 -2.50939,-0.42357 -4.954752,-1.15696 -7.249893,-2.17397 1.101606,0.92422 1.97993,2.0677 2.55536,3.32719 -1.898665,-1.33881 -3.95658,-2.48754 -6.126951,-3.42074 1.258391,1.29017 2.30992,2.74797 3.112728,4.31203 -3.009298,-1.90831 -6.115455,-3.69015 -9.305347,-5.33653 1.591665,1.1854 2.995347,2.58034 4.152768,4.12868 -2.785201,-1.72945 -5.706668,-3.2763 -8.734022,-4.62559 2.0103,1.36051 3.806359,2.98445 5.31347,4.80669 -3.558455,-1.63815 -7.301608,-2.94328 -11.151475,-3.88696 2.485589,0.9796 4.825057,2.26603 6.935506,3.81288 -3.060195,-0.99232 -6.147476,-1.9128 -9.259375,-2.76219 2.008656,0.84864 4.027167,1.70327 5.850311,2.8475 -2.834453,-0.8172 -5.71405,-1.5042 -8.624843,-2.05798 1.938066,0.81421 3.813748,1.7519 5.599952,2.81532 -2.956765,-0.99083 -6.025163,-1.70326 -9.141171,-2.12085 1.89949,0.56127 3.734121,1.30589 5.462047,2.21813 -2.321414,-0.15116 -4.654314,-0.16613 -6.978183,-0.0442 1.070405,0.19831 2.140817,0.39588 3.212048,0.5942 -1.750908,0.24545 -5.787109,1.64039 -5.162427,-1.41664 0.229021,-1.1188 1.220624,-2.24432 1.920003,-3.15881 0.704303,-0.92048 2.18925,-1.95621 2.656326,-2.94928"
       style="fill:#668944;fill-opacity:1;fill-rule:nonzero;stroke:none;stroke-width:0.00783772" />
    <path
       id="path61"
       d="m 40.334188,30.473753 c -2.932132,-3.7343 -6.468425,-7.07272 -10.45948,-9.87457 0.152681,0.42732 0.305362,0.85463 0.457224,1.28194 -1.664717,-0.99831 -3.381149,-1.92477 -5.141908,-2.77565 0.384984,0.4086 0.770794,0.81645 1.155778,1.22431 -2.121117,-1.15098 -4.387534,-2.07669 -6.741779,-2.75396 0.893104,0.52011 1.785385,1.04022 2.67849,1.56033 -2.841022,-0.38391 -5.716514,-0.55828 -8.58873,-0.52161 0.774081,0.39439 1.547338,0.78877 2.320594,1.18315 -1.672105,0.19982 -3.314659,0.60842 -4.866097,1.21085 1.87732,0.11824 3.739864,0.44003 5.53428,0.95714 -1.306821,0.55154 -2.513495,1.29915 -3.557637,2.20316 2.291861,0.0187 4.584541,-0.0307 6.873116,-0.14817 -0.9087,0.55678 -1.818218,1.1143 -2.726917,1.67108 3.628228,7.3e-4 7.169447,-1.95171 10.718053,-1.26098 -1.453753,0.55603 -2.820496,1.30214 -4.045226,2.20765 2.52252,-0.81272 5.180485,-1.2752 7.854049,-1.3665 -1.559645,0.41534 -3.006016,1.18016 -4.175751,2.20765 2.030826,-0.61589 4.159332,-0.96388 6.299331,-1.02899 -1.892096,0.74911 -3.64711,1.78408 -5.173922,3.04881 2.050527,-0.61365 4.142918,-1.23404 6.300974,-1.23255 2.534015,0.002 5.054898,0.90402 6.913336,2.47482 0.104254,0.0876 0.214247,0.22376 0.13955,0.33377 -0.07552,0.11 -0.288124,-0.0965 -0.146937,-0.11001 l -1.620391,-0.49167"
       style="fill:#668944;fill-opacity:1;fill-rule:nonzero;stroke:none;stroke-width:0.00783772" />
    <path
       id="path62"
       d="m 42.661345,33.018163 c -1.956942,-1.38745 -3.738227,-2.97996 -5.297052,-4.7371 1.43077,0.76931 2.862365,1.53862 4.293136,2.30718 -3.558457,-1.90606 -6.112998,-5.01398 -8.550147,-8.05081 2.045596,1.67557 4.174107,3.26657 6.377309,4.76703 -2.723635,-2.42543 -5.163247,-5.11726 -7.261382,-8.0134 1.725457,1.34854 3.450921,2.69633 5.176385,4.04486 -2.197464,-2.11186 -4.292312,-4.31277 -6.276348,-6.59451 1.50383,0.92946 2.955938,1.92926 4.348132,2.99342 -2.130149,-2.05274 -4.140455,-4.20801 -6.019419,-6.45457 1.102426,0.8636 2.268055,1.65985 3.487866,2.38052 -1.278089,-1.3882 -2.557003,-2.7764 -3.835092,-4.16535 1.555544,0.85387 3.069224,1.77061 4.53529,2.74796 -1.228837,-1.65087 -2.56521,-3.23589 -4.000081,-4.74233 1.878138,1.53712 3.537112,3.29651 4.921912,5.22053 -0.484307,-1.35303 -0.751912,-2.76966 -0.792957,-4.19154 0.743705,2.10064 1.488235,4.20202 2.23194,6.30266 -0.05828,-1.34854 0.137081,-2.70606 0.573786,-3.99548 0.349689,2.31167 0.699378,4.62335 1.049067,6.93577 0.105067,-1.74517 0.391554,-3.77621 2.044777,-4.66077 -0.829896,2.1635 -1.311747,4.43851 -1.424201,6.72773 0.68624,-1.47726 1.597402,-2.86845 2.699009,-4.12045 -0.828258,2.11635 -1.498905,4.28434 -2.0062,6.48376 0.616469,-1.22656 1.503005,-2.33862 2.591474,-3.25161 -0.769969,1.62094 -1.258389,3.35264 -1.44144,5.11127 0.572967,-0.93843 1.32816,-1.78408 2.218802,-2.48753 -0.645201,1.42412 -1.190254,2.88566 -1.631059,4.37264 0.792957,-0.88081 1.586733,-1.76088 2.380509,-2.64169 -0.41618,1.47276 -0.832359,2.94553 -1.249357,4.41829 0.820046,-1.07464 1.679493,-2.18295 2.918999,-2.8445 -0.586917,1.13151 -1.17876,2.27575 -1.464422,3.50006 -0.285661,1.22431 -0.239697,2.55489 0.404686,3.66021 l -1.003922,-1.02225"
       style="fill:#93ad3f;fill-opacity:1;fill-rule:nonzero;stroke:none;stroke-width:0.00783772" />
    <path
       id="path63"
       d="m 45.911977,33.087013 c 2.779455,-0.32404 5.599952,-0.35547 8.386795,-0.092 5.067207,0.47895 10.084347,1.97117 14.188676,4.72288 4.104336,2.7517 7.23512,6.82351 8.164344,11.38998 -1.095858,-1.79231 -2.279549,-3.54047 -3.547789,-5.2355 0.618114,1.81925 1.058101,3.68865 1.311748,5.57975 -0.96534,-2.74498 -2.094855,-5.4413 -3.382794,-8.07402 0.213428,2.8662 0.820865,5.70771 1.808369,8.43547 -1.151673,-1.17267 -1.731209,-2.7098 -2.268874,-4.20502 -0.681322,-1.89333 -1.339656,-3.79341 -1.975825,-5.69948 -0.199471,2.99941 0.08701,6.02577 0.847954,8.95035 -0.741242,-0.97811 -0.935789,-2.20391 -1.145928,-3.37733 -0.409617,-2.278 -0.956315,-4.53505 -1.638454,-6.75841 -0.731392,3.27256 -0.356253,6.65588 0.02134,9.97783 -2.025893,-3.52251 -2.462592,-7.62126 -2.470799,-11.59877 -0.831541,3.59585 -1.115558,7.29647 -0.840571,10.96267 -1.671281,-3.80764 -1.107346,-8.23941 -3.043774,-11.94077 0.257754,2.97247 0.360365,5.95616 0.307824,8.93837 -0.929218,-1.84096 -1.146745,-3.90044 -1.649115,-5.87385 -0.331634,-1.30214 -0.790495,-2.57735 -1.37085,-3.8054 0.283198,1.91729 0.715797,3.81587 1.292865,5.67703 -2.091566,-1.85966 -2.768782,-4.77825 -4.955571,-6.54587 1.357712,2.13731 2.307457,4.48864 2.795052,6.91706 -1.5301,-2.54067 -3.191529,-5.01549 -4.976915,-7.41397 1.111451,1.79905 1.901126,3.76349 2.327976,5.79153 -1.732026,-2.05499 -3.633978,-3.99023 -5.684499,-5.78479 0.930037,1.12253 1.8609,2.24507 2.790943,3.3676 -1.659792,-1.26846 -3.432038,-2.58482 -5.569575,-2.89838 -0.162531,-0.024 -0.601699,-8.2e-4 -1.123771,0.0217 -1.102419,0.0479 -2.56931,0.0958 -2.557816,-0.2941 0.02216,-0.71244 3.370474,-1.06566 3.959036,-1.13451"
       style="fill:#93ad3f;fill-opacity:1;fill-rule:nonzero;stroke:none;stroke-width:0.00783772" />
    <path
       id="path64"
       d="m 45.112456,35.126283 -1.431595,-0.85238 c -1.392188,-0.43255 -3.03146,-0.0314 -4.053439,0.9332 -1.021154,0.96388 -1.407782,2.43066 -1.049887,3.73056 0.357896,1.30064 1.423383,2.40746 2.760575,2.96573 0.151037,0.0629 0.325063,0.11974 0.480207,0.0644 0.12313,-0.0442 0.204396,-0.14892 0.295512,-0.23723 0.497445,-0.48493 1.323235,-0.49092 2.005375,-0.72366 1.167272,-0.39962 1.914265,-1.52589 2.013588,-2.65966 0.100148,-1.13301 -0.357896,-2.25779 -1.020336,-3.22092"
       style="fill:#4f3522;fill-opacity:1;fill-rule:nonzero;stroke:none;stroke-width:0.00783772" />
    <path
       id="path65"
       d="m 47.453563,33.755293 -1.376593,0.92347 c -0.932499,1.03722 -1.095031,2.57734 -0.462143,3.78743 0.632889,1.21009 2.004555,2.05349 3.465697,2.20391 1.461139,0.14967 2.971533,-0.37193 4.013213,-1.31785 0.118205,-0.10777 0.237233,-0.23574 0.234772,-0.38765 -0.0017,-0.12049 -0.08127,-0.2275 -0.140368,-0.33601 -0.323426,-0.59495 -0.04023,-1.30139 -0.04105,-1.96519 -7.14e-4,-1.1375 -0.897205,-2.16948 -2.0259,-2.65142 -1.12951,-0.48269 -2.445362,-0.48569 -3.667632,-0.25669"
       style="fill:#4f3522;fill-opacity:1;fill-rule:nonzero;stroke:none;stroke-width:0.00783772" />
    <path
       id="path66"
       d="m 42.075246,36.494273 c -0.224097,0.84714 -0.208496,1.85144 0.477744,2.45835 0.460507,0.40636 1.122127,0.54481 1.749271,0.66754 1.028542,0.20056 2.057908,0.40112 3.086457,0.60168 0.08619,0.0172 0.174026,0.0337 0.261034,0.0202 0.140369,-0.0224 0.250367,-0.11973 0.347227,-0.21553 0.895562,-0.8853 1.476736,-2.03103 1.635985,-3.22691 0.08126,-0.60691 0.05253,-1.24003 -0.213428,-1.80129 -0.3464,-0.72815 -1.073685,-1.27296 -1.891269,-1.5461 -2.593943,-0.86884 -4.846397,0.74386 -5.453021,3.04206"
       style="fill:#755032;fill-opacity:1;fill-rule:nonzero;stroke:none;stroke-width:0.00783772" />
    <path
       id="path67"
       d="m 29.310772,35.798303 c 2.139181,0.10103 4.27918,0.20206 6.419179,0.30309 -4.308731,1.10607 -8.216058,2.83103 -11.421538,5.04093 2.792588,-0.93246 5.672187,-1.7549 8.6232,-2.4621 -3.313835,1.08512 -6.53574,2.28698 -9.651748,3.59885 2.290218,-0.69672 4.579617,-1.39344 6.869835,-2.09016 -3.282645,1.48773 -6.467612,3.07125 -9.545037,4.74533 2.285293,-1.04171 4.66252,-1.99363 7.117732,-2.85049 -4.385071,1.9128 -8.491044,4.10698 -12.253078,6.55111 2.748262,-1.39494 5.514586,-2.79661 8.620744,-3.81213 -4.052621,2.44488 -7.955841,5.00501 -11.698168,7.67215 2.524164,-1.46528 5.048329,-2.93056 7.572494,-4.39585 -3.781734,2.54067 -7.601226,5.11427 -10.3100865,8.25887 2.9362375,-2.19718 5.9061335,-4.41306 9.5401115,-6.0587 -2.141643,1.69129 -4.302981,3.40353 -5.777259,5.42409 1.750909,-1.6374 3.72427,-3.15507 5.88972,-4.5313 -0.324244,1.96294 -2.587374,3.5532 -2.437974,5.55505 1.622028,-2.12009 3.244063,-4.24018 4.866097,-6.36028 -1.005565,1.58577 -1.714794,3.27481 -2.104704,5.01623 1.544869,-2.68735 3.402494,-5.27441 5.549057,-7.73052 -0.311107,1.32758 -0.622213,2.65517 -0.932501,3.98275 -0.09194,0.39514 -0.164994,0.84565 0.208496,1.18166 1.076156,-2.48828 2.152312,-4.97732 3.228469,-7.46635 -0.847135,1.85068 -1.186148,3.83757 -0.995709,5.83269 0.91198,-2.54741 1.824786,-5.09481 2.736767,-7.64147 -0.642739,2.06546 -1.109808,4.16685 -1.397932,6.29069 1.631879,-2.42318 2.690797,-5.0342 3.743152,-7.63324 -0.559836,1.78258 -0.911162,3.60708 -1.049068,5.45178 1.302716,-2.60878 2.605431,-5.21754 3.908146,-7.82632 -0.381703,1.81402 -0.763406,3.62804 -1.145109,5.4428 1.759115,-2.65068 3.138171,-5.43831 4.113361,-8.31274 -0.187977,1.80803 -0.79542,3.55694 -1.400401,5.29761 1.553082,-1.71149 2.64237,-3.63776 3.203024,-5.66356 -0.232303,1.25275 -0.581174,2.48829 -1.044143,3.69688 1.250182,-1.63366 2.368203,-3.3197 3.346674,-5.05066 -0.489239,1.0739 -0.978471,2.14779 -1.46771,3.22168 0.974371,-1.32759 1.947098,-2.65442 2.922288,-3.98126 1.1016,-1.49821 0.288942,-1.72571 -1.920829,-1.3418 -4.069858,0.70794 -8.055164,1.59101 -11.925552,2.64469"
       style="fill:#93ad3f;fill-opacity:1;fill-rule:nonzero;stroke:none;stroke-width:0.00783772" />
    <path
       id="path68"
       d="m 44.429491,37.318963 c -0.08208,0 -0.16335,-0.0135 -0.239691,-0.0412 -0.448193,-0.16389 -0.565579,-0.68923 -0.557366,-1.12927 0.009,-0.46547 0.09275,-0.94293 0.361177,-1.33806 0.22574,-0.33077 0.695278,-0.68549 1.151678,-0.68549 0.0082,0 0.01642,0 0.02545,8.1e-4 0.319319,0.009 1.121309,0.37119 1.155783,0.68924 0.009,0.0778 -0.03447,0.15266 -0.08373,0.21628 -0.267604,0.34723 -0.751093,0.54181 -0.943176,0.92871 -0.176489,0.35921 -0.06567,0.81944 -0.332451,1.12851 -0.127236,0.14743 -0.333276,0.2305 -0.537672,0.2305"
       style="fill:#8f7159;fill-opacity:1;fill-rule:nonzero;stroke:none;stroke-width:0.00783772" />
    <path
       id="path69"
       d="m 42.009581,57.657043 c -0.06485,0.0112 -0.12888,0.0292 -0.191264,0.0561 0.06567,-0.0135 0.129699,-0.0329 0.191264,-0.0561"
       style="fill:#7f5737;fill-opacity:1;fill-rule:nonzero;stroke:none;stroke-width:0.00783772" />
    <path
       id="path70"
       d="m 50.128765,77.319363 c -3.926202,-5.17264 -5.881506,-15.43036 -6.647374,-24.07837 -0.427668,-4.83288 -0.252005,-9.23097 0.07552,-12.62702 -0.130518,-0.006 -0.253647,0.01 -0.361183,0.0531 -0.04104,0.0172 -1.356068,2.56462 -1.370843,2.54815 0.618931,0.72067 0.810195,1.7302 0.49252,2.59829 -0.264323,0.72367 -0.824153,1.58951 -0.252829,2.14554 0.117386,0.11375 0.27253,0.19532 0.373496,0.32105 0.148575,0.18484 0.156781,0.42955 0.165813,0.65855 0.05582,1.39569 0.35297,2.78688 0.249542,4.18032 -0.10343,1.39344 -0.698554,2.85872 -1.996344,3.60109 0.657514,-0.0868 1.315847,-0.17362 1.973361,-0.26042 0.04679,0.50289 -0.31275,1.00728 -0.820864,1.19736 0.411254,-0.0703 0.865191,0.15416 1.11227,0.4782 0.286486,0.37568 0.363646,0.84789 0.432598,1.30065 0.146113,0.95789 0.292231,1.93225 0.1297,2.88791 -0.162532,0.9564 -0.682141,1.90831 -1.591665,2.40521 0.604162,0.39738 1.620391,-0.62412 2.085822,-0.0943 0.255292,0.29111 -0.02298,0.7087 -0.292224,0.98783 0.282374,0.0486 0.564754,0.0965 0.847953,0.14518 -0.591843,0.91 -1.278908,1.76911 -2.050527,2.55938 0.316038,0.2058 0.754381,0.0801 1.107351,-0.0666 0.353796,-0.14743 0.760125,-0.31057 1.112277,-0.16165 0.352151,0.14893 0.331625,0.77381 -0.05582,0.74986 0.791314,0.22899 0.962877,1.20634 0.734674,1.93375 -0.228197,0.7274 -0.709229,1.40691 -0.70266,2.16349 0.439162,-0.0419 0.879149,-0.0838 1.319135,-0.12572 -0.08948,0.92272 -0.341483,1.83198 -0.742068,2.68211 0.279918,0.0876 0.581175,-0.0322 0.857811,-0.12796 0.276629,-0.0958 0.615649,-0.1624 0.847952,0.005 0.232303,0.16763 0.09193,0.62413 -0.192083,0.5493 0.630427,0.54479 1.261671,1.09035 1.892096,1.63515 0.227379,0.19682 0.46215,0.40337 0.570505,0.67203 0.48595,1.20485 -1.828069,2.28997 -1.287941,3.47611 0.879967,-0.57473 1.759115,-1.15022 2.639082,-1.72571 0.03038,0.46847 0.06156,0.9362 0.09194,1.40467 0.308643,-0.38316 1.109808,-0.21328 1.200104,0.25444 0.26268,-0.0269 0.525353,-0.0539 0.788033,-0.0808 -0.620575,1.14947 -1.24115,2.29894 -1.861725,3.44768 0.875041,-0.59271 1.767327,-1.1637 2.676026,-1.71299 -0.282379,1.21682 -0.758479,2.39623 -1.410251,3.48808 1.567859,-0.12946 2.448643,-2.19717 4.012394,-2.03253 0.06075,0.43031 -0.06731,0.88006 -0.350507,1.22955 0.290586,-0.19757 0.581172,-0.39588 0.871761,-0.5942 0.1691,0.40935 0.860265,0.52609 1.178767,0.19832 0.02709,0.34873 0.05499,0.69747 0.08208,1.0462 0.0074,0.0935 0.02134,0.19906 0.103429,0.25669 0.101786,0.0703 0.246262,0.0292 0.364466,-0.0157 0.930863,-0.34948 1.882244,-0.71094 2.629238,-1.32684 0.055,-0.0457 0.108353,-0.0928 0.160887,-0.14144 v -0.004 c 0,0 -8.185682,-4.1227 -11.191698,-8.08375"
       style="fill:#7f5737;fill-opacity:1;fill-rule:nonzero;stroke:none;stroke-width:0.00783772" />
    <path
       id="path55-8"
       d="m 136.6939,18.326994 c -3.47473,-2.63871 -7.5766,-4.58593 -11.93951,-5.66805 0.56969,0.7476 1.44145,1.24825 2.2894,1.7287 -1.17958,-0.0621 -2.35917,-0.12348 -3.53957,-0.18559 1.04496,0.43629 2.02918,0.99382 2.92146,1.65461 -1.94627,-0.30308 -3.9418,-0.34125 -5.89957,-0.11225 0.5861,0.30907 1.13444,0.67876 1.63024,1.09934 -0.83399,-0.0674 -1.69098,0.14293 -2.37394,0.58296 0.34722,0.18635 0.63288,0.46848 0.80773,0.79925 -0.21917,0.0404 -0.43998,0.0808 -0.65998,0.12049 0.82415,1.5446 2.7023,2.32065 4.40149,3.06227 2.44044,1.06566 4.7914,2.30045 7.0258,3.69164 -3.1669,0.64209 -6.23367,1.69054 -9.08289,3.10493 0.63453,0.11525 1.2863,0.15267 1.9315,0.11076 -0.55737,0.26492 -1.07698,0.59419 -1.54405,0.9781 0.47856,0.0771 0.95795,0.15491 1.43651,0.23274 -0.31275,0.21927 -0.62632,0.43853 -0.93907,0.65855 1.64584,-0.0449 3.22272,0.53209 4.79715,0.97212 4.26358,1.19138 8.77014,1.40616 13.22334,1.61271 0.3776,0.0172 0.76586,0.0337 1.12377,-0.0771 0.58938,-0.18334 1.00063,-0.68923 1.19189,-1.22954 0.44573,-1.26323 -0.14611,-2.61925 -0.7593,-3.82261 -1.4004,-2.74871 -2.97153,-5.42409 -4.70357,-8.01115 l -1.33883,-1.30289"
       style="fill:#3e566e;fill-opacity:1;fill-rule:nonzero;stroke:none;stroke-width:0.00783772" />
    <path
       id="path56-2"
       d="m 151.28973,23.635834 c -0.86437,0.9534 -1.55801,2.03478 -2.0456,3.18874 2.18761,-2.38875 4.41708,-4.81268 7.26221,-6.5309 -1.16071,1.1809 -2.18515,2.47332 -3.05116,3.84879 2.35342,-2.31466 5.23795,-4.17732 8.41388,-5.43381 -0.93169,0.80373 -1.78539,1.68156 -2.55043,2.62 1.40285,-0.72292 2.80818,-1.44209 4.21597,-2.15602 1.23376,-0.62563 2.52334,-1.26248 3.93194,-1.33806 -1.25017,1.10158 -2.50035,2.20316 -3.75053,3.30474 3.18414,-1.25649 6.53984,-2.53917 9.99405,-2.24208 -1.51614,0.77455 -2.99698,1.60523 -4.43843,2.48979 3.139,-0.53508 6.35104,-0.71618 9.53848,-0.53732 -2.33866,0.51561 -4.63134,1.20111 -6.85096,2.04825 3.13078,-0.19832 6.28291,-0.0965 9.3899,0.30159 -2.05217,0.53657 -4.10434,1.07314 -6.15651,1.60896 2.88453,0.21927 5.76905,0.43779 8.6544,0.65631 -3.13489,0.58596 -5.9521,2.21439 -9.09849,2.74796 -3.68076,0.62339 -7.44197,-0.30158 -11.18266,-0.44078 -3.95494,-0.14742 -7.9386,0.62788 -11.50691,2.18371 -1.00228,0.43704 -3.55845,2.48529 -4.60506,2.20615 -1.22473,-0.32703 -0.99243,-2.3431 -0.64438,-3.11466 0.90049,-1.9996 2.94691,-3.80464 4.48029,-5.41136"
       style="fill:#3e566e;fill-opacity:1;fill-rule:nonzero;stroke:none;stroke-width:0.00783772" />
    <path
       id="path57-2"
       d="m 141.45082,11.354554 c -0.23805,0.46847 -0.37513,0.9781 -0.40058,1.49372 1.35853,-1.10383 3.11355,-1.79456 4.92684,-1.93974 -0.63617,0.68325 -1.10653,1.49447 -1.36756,2.35807 0.5114,-0.38016 1.1016,-0.67053 1.73039,-0.85238 -0.40633,0.6391 -0.69528,1.33956 -0.85043,2.06472 0.72893,-0.28737 1.41846,-0.65855 2.04643,-1.10308 -0.91034,1.40392 -1.51614,2.97098 -1.77389,4.58518 1.08026,-1.29241 2.41581,-2.70755 4.19791,-2.72177 -1.35279,1.82599 -2.74252,3.74028 -3.05445,5.92474 0.80691,-1.01403 1.78703,-1.91205 2.8952,-2.65293 -0.95221,1.22057 -1.67211,2.59231 -2.11538,4.03439 0.78311,-0.72141 1.56704,-1.44283 2.35014,-2.16424 -0.92429,1.27819 -1.71396,2.6372 -2.3526,4.05309 0.74535,-0.53058 1.37741,-1.19288 1.85023,-1.93899 -1.55636,2.69558 -2.59065,5.64186 -3.03966,8.66073 -0.16253,1.08736 -0.25858,2.21588 -0.81431,3.18949 -0.078,0.13621 -0.1814,0.28064 -0.34476,0.31731 -0.31521,0.0711 -0.52946,-0.28213 -0.61647,-0.56726 -0.36857,-1.19737 -0.65177,-2.41644 -1.07697,-3.59809 -0.53603,-1.48549 -1.29123,-2.89614 -2.04479,-4.30156 -1.62531,-3.03234 -3.39674,-6.03399 -4.89072,-9.12246 -0.67557,-1.39718 0.16828,-2.22337 1.23459,-3.28229 0.3817,-0.37942 3.49443,-2.22786 3.51084,-2.43665"
       style="fill:#3e566e;fill-opacity:1;fill-rule:nonzero;stroke:none;stroke-width:0.00783772" />
    <path
       id="path58-7"
       d="m 136.42712,28.343744 c 0.98504,0.80373 1.96926,1.60821 2.95348,2.41195 -2.96743,-1.18315 -6.05882,-2.10662 -9.21916,-2.75395 1.69345,0.88081 3.34914,1.82075 4.96214,2.81831 -3.33436,-0.85463 -6.75409,-1.4346 -10.20255,-1.72945 2.04232,0.85238 4.08546,1.7055 6.12777,2.55863 -3.97053,-0.62712 -8.06502,-0.59869 -12.02487,0.0846 0.29304,0.45351 0.9128,0.61814 1.47345,0.74387 1.99799,0.44901 3.9968,0.89877 5.99561,1.34779 -4.30052,0.35996 -8.55178,1.2071 -12.62492,2.51523 2.43797,0.20205 4.88251,0.339 7.32869,0.41159 -4.13224,0.81571 -8.0921,2.34834 -11.6064,4.49089 2.50956,-0.39888 5.02797,-0.74686 7.5546,-1.04396 -3.29906,1.22356 -6.33216,3.03833 -8.87669,5.31034 2.72348,-1.20336 5.42331,-2.44938 8.09933,-3.73804 -2.61281,1.27445 -4.82423,3.22242 -6.31082,5.55879 3.1078,-2.20915 6.21478,-4.41905 9.32176,-6.62895 -1.32159,1.35228 -2.35425,2.93805 -3.02571,4.64281 2.22947,-2.34385 4.45894,-4.68696 6.68842,-7.03006 -1.27645,2.09166 -2.55372,4.18406 -3.83017,6.27647 2.3485,-2.60129 4.69782,-5.20183 7.04714,-7.80312 -1.27809,2.03553 -2.55536,4.07106 -3.83262,6.10734 1.35443,-0.9766 2.38708,-2.26752 3.40167,-3.54047 1.12869,-1.41664 2.25738,-2.83253 3.38526,-4.24842 -1.17385,2.11186 -2.34851,4.22372 -3.52317,6.33558 2.03985,-2.83103 4.37194,-5.48695 6.95439,-7.92135 -1.46771,2.24058 -2.93542,4.48191 -4.40313,6.72323 2.02507,-2.41045 4.06821,-4.83962 6.58335,-6.8295 -0.85124,1.62917 -1.90359,3.17004 -3.13243,4.58443 2.35014,-1.15621 3.70785,-3.62054 6.13598,-4.63307 -1.09668,0.80149 -2.05135,1.76462 -2.8164,2.83926 1.8683,-1.19288 3.88598,-2.19193 6.00218,-2.96948 -1.46442,0.79326 -2.82378,1.74892 -4.03784,2.83927 1.75419,-0.79326 3.54614,-1.51542 5.36928,-2.165 -0.93578,0.43779 -1.74187,1.10458 -2.31073,1.91131 0.4211,-0.59719 3.35241,-1.07165 4.11993,-1.25125 -0.28566,0.23947 -0.6017,0.4535 -0.88572,0.69297 3.06347,-0.45425 1.27973,-2.33188 -0.31111,-3.40202 -2.03739,-1.37099 -4.22828,-2.55265 -6.52999,-3.51653"
       style="fill:#446789;fill-opacity:1;fill-rule:nonzero;stroke:none;stroke-width:0.00783772" />
    <path
       id="path59-2"
       d="m 155.44167,93.995557 c -0.27089,-0.3652 -5.90941,-4.39286 -9.37019,-12.600083 -3.03803,-7.20667 -3.57569,-16.39948 -3.95001,-25.74945 -0.39566,-9.86184 2.05956,-21.63124 2.05956,-21.63124 l 2.68997,0.76108 c 0,0 -2.09321,8.67869 -1.13033,19.55006 0.76587,8.64801 2.72117,18.90573 6.64737,24.07837 3.00602,3.96105 11.1917,8.083753 11.1917,8.083753 0,0 -0.24708,3.18276 -2.92392,4.42054 l -5.21415,3.08697"
       style="fill:#95693f;fill-opacity:1;fill-rule:nonzero;stroke:none;stroke-width:0.00783772" />
    <path
       id="path60-1"
       d="m 149.18995,27.444214 c -0.48513,1.03124 -0.78803,2.13357 -0.8931,3.25086 1.62285,-2.28622 3.77763,-4.25814 6.27963,-5.74663 -0.78639,1.24228 -1.5736,2.4838 -2.35999,3.72607 2.63087,-2.1156 5.42757,-4.30903 8.86207,-4.9601 -1.19272,0.89802 -2.26887,1.92402 -3.19974,3.04955 2.9305,-1.32534 6.18195,-2.05723 9.45228,-2.12683 -1.43405,0.38914 -2.81146,0.94891 -4.08627,1.66135 3.61428,-0.39813 7.34758,-0.78877 10.84118,0.14443 -1.15085,-0.21552 -2.35917,-0.16913 -3.48621,0.13471 2.93542,0.0748 5.85688,0.57623 8.62073,1.48024 -1.82396,-0.006 -3.64792,-0.012 -5.47107,-0.018 3.68076,1.07465 7.46907,2.20242 10.40366,4.49538 -2.50939,-0.42357 -4.95475,-1.15696 -7.24989,-2.17397 1.1016,0.92422 1.97993,2.0677 2.55536,3.32719 -1.89867,-1.33881 -3.95658,-2.48754 -6.12695,-3.42074 1.25839,1.29017 2.30992,2.74797 3.11273,4.31203 -3.0093,-1.90831 -6.11546,-3.69015 -9.30535,-5.33653 1.59166,1.1854 2.99535,2.58034 4.15277,4.12868 -2.7852,-1.72945 -5.70667,-3.2763 -8.73403,-4.62559 2.0103,1.36051 3.80636,2.98445 5.31347,4.80669 -3.55845,-1.63815 -7.3016,-2.94328 -11.15147,-3.88696 2.48559,0.9796 4.82506,2.26603 6.93551,3.81288 -3.0602,-0.99232 -6.14748,-1.9128 -9.25938,-2.76219 2.00866,0.84864 4.02717,1.70327 5.85031,2.8475 -2.83445,-0.8172 -5.71405,-1.5042 -8.62484,-2.05798 1.93806,0.81421 3.81375,1.7519 5.59995,2.81532 -2.95676,-0.99083 -6.02516,-1.70326 -9.14117,-2.12085 1.89949,0.56127 3.73412,1.30589 5.46205,2.21813 -2.32142,-0.15116 -4.65432,-0.16613 -6.97819,-0.0442 1.07041,0.19831 2.14082,0.39588 3.21205,0.5942 -1.75091,0.24545 -5.78711,1.64039 -5.16243,-1.41664 0.22903,-1.1188 1.22063,-2.24432 1.92001,-3.15881 0.7043,-0.92048 2.18925,-1.95621 2.65632,-2.94928"
       style="fill:#446789;fill-opacity:1;fill-rule:nonzero;stroke:none;stroke-width:0.00783772" />
    <path
       id="path61-5"
       d="m 142.59347,31.558684 c -2.93213,-3.7343 -6.46843,-7.07272 -10.45948,-9.87457 0.15268,0.42732 0.30536,0.85463 0.45722,1.28194 -1.66472,-0.99831 -3.38115,-1.92477 -5.14191,-2.77565 0.38499,0.4086 0.7708,0.81645 1.15578,1.22431 -2.12112,-1.15098 -4.38753,-2.07669 -6.74178,-2.75396 0.89311,0.52011 1.78539,1.04022 2.67849,1.56033 -2.84102,-0.38391 -5.71651,-0.55828 -8.58873,-0.52161 0.77408,0.39439 1.54734,0.78877 2.3206,1.18315 -1.67211,0.19982 -3.31466,0.60842 -4.8661,1.21085 1.87732,0.11824 3.73986,0.44003 5.53428,0.95714 -1.30682,0.55154 -2.5135,1.29915 -3.55764,2.20316 2.29186,0.0187 4.58454,-0.0307 6.87312,-0.14817 -0.9087,0.55678 -1.81822,1.1143 -2.72692,1.67108 3.62823,7.3e-4 7.16945,-1.95171 10.71805,-1.26098 -1.45375,0.55603 -2.82049,1.30214 -4.04522,2.20765 2.52252,-0.81272 5.18048,-1.2752 7.85405,-1.3665 -1.55965,0.41534 -3.00602,1.18016 -4.17575,2.20765 2.03082,-0.61589 4.15933,-0.96388 6.29933,-1.02899 -1.8921,0.74911 -3.64711,1.78408 -5.17392,3.04881 2.05052,-0.61365 4.14291,-1.23404 6.30097,-1.23255 2.53401,0.002 5.0549,0.90402 6.91334,2.47482 0.10425,0.0876 0.21424,0.22376 0.13955,0.33377 -0.0755,0.11 -0.28813,-0.0965 -0.14694,-0.11001 l -1.62039,-0.49167"
       style="fill:#446789;fill-opacity:1;fill-rule:nonzero;stroke:none;stroke-width:0.00783772" />
    <path
       id="path62-7"
       d="m 144.92062,34.103094 c -1.95694,-1.38745 -3.73822,-2.97996 -5.29705,-4.7371 1.43077,0.76931 2.86237,1.53862 4.29314,2.30718 -3.55846,-1.90606 -6.113,-5.01398 -8.55015,-8.05081 2.0456,1.67557 4.17411,3.26657 6.37731,4.76703 -2.72363,-2.42543 -5.16325,-5.11726 -7.26138,-8.0134 1.72546,1.34854 3.45092,2.69633 5.17638,4.04486 -2.19746,-2.11186 -4.29231,-4.31277 -6.27634,-6.59451 1.50383,0.92946 2.95593,1.92926 4.34813,2.99342 -2.13015,-2.05274 -4.14046,-4.20801 -6.01942,-6.45457 1.10242,0.8636 2.26805,1.65985 3.48786,2.38052 -1.27808,-1.3882 -2.557,-2.7764 -3.83509,-4.16535 1.55555,0.85387 3.06923,1.77061 4.53529,2.74796 -1.22883,-1.65087 -2.56521,-3.23589 -4.00008,-4.74233 1.87814,1.53712 3.53711,3.29651 4.92191,5.22053 -0.4843,-1.35303 -0.75191,-2.76966 -0.79295,-4.19154 0.7437,2.10064 1.48823,4.20202 2.23194,6.30266 -0.0583,-1.34854 0.13708,-2.70606 0.57378,-3.99548 0.34969,2.31167 0.69938,4.62335 1.04907,6.93577 0.10507,-1.74517 0.39155,-3.77621 2.04478,-4.66077 -0.8299,2.1635 -1.31175,4.43851 -1.4242,6.72773 0.68624,-1.47726 1.5974,-2.86845 2.699,-4.12045 -0.82825,2.11635 -1.4989,4.28434 -2.0062,6.48376 0.61647,-1.22656 1.50301,-2.33862 2.59148,-3.25161 -0.76997,1.62094 -1.25839,3.35264 -1.44144,5.11127 0.57297,-0.93843 1.32816,-1.78408 2.2188,-2.48753 -0.6452,1.42412 -1.19025,2.88566 -1.63106,4.37264 0.79296,-0.88081 1.58673,-1.76088 2.38051,-2.64169 -0.41618,1.47276 -0.83236,2.94553 -1.24936,4.41829 0.82005,-1.07464 1.6795,-2.18295 2.919,-2.8445 -0.58691,1.13151 -1.17876,2.27575 -1.46442,3.50006 -0.28566,1.22431 -0.2397,2.55489 0.40469,3.66021 l -1.00393,-1.02225"
       style="fill:#3f76ad;fill-opacity:1;fill-rule:nonzero;stroke:none;stroke-width:0.00783772" />
    <path
       id="path63-3"
       d="m 148.17126,34.171944 c 2.77945,-0.32404 5.59995,-0.35547 8.38679,-0.092 5.06721,0.47895 10.08435,1.97117 14.18868,4.72288 4.10433,2.7517 7.23512,6.82351 8.16434,11.38998 -1.09586,-1.79231 -2.27955,-3.54047 -3.54779,-5.2355 0.61812,1.81925 1.0581,3.68865 1.31175,5.57975 -0.96534,-2.74498 -2.09485,-5.4413 -3.38279,-8.07402 0.21342,2.8662 0.82086,5.70771 1.80837,8.43547 -1.15168,-1.17267 -1.73121,-2.7098 -2.26888,-4.20502 -0.68132,-1.89333 -1.33965,-3.79341 -1.97582,-5.69948 -0.19947,2.99941 0.087,6.02577 0.84795,8.95035 -0.74124,-0.97811 -0.93579,-2.20391 -1.14593,-3.37733 -0.40961,-2.278 -0.95631,-4.53505 -1.63845,-6.75841 -0.73139,3.27256 -0.35625,6.65588 0.0213,9.97783 -2.02589,-3.52251 -2.46259,-7.62126 -2.4708,-11.59877 -0.83154,3.59585 -1.11556,7.29647 -0.84057,10.96267 -1.67128,-3.80764 -1.10735,-8.23941 -3.04378,-11.94077 0.25776,2.97247 0.36037,5.95616 0.30783,8.93837 -0.92922,-1.84096 -1.14675,-3.90044 -1.64912,-5.87385 -0.33163,-1.30214 -0.79049,-2.57735 -1.37085,-3.8054 0.2832,1.91729 0.7158,3.81587 1.29287,5.67703 -2.09157,-1.85966 -2.76878,-4.77825 -4.95557,-6.54587 1.35771,2.13731 2.30745,4.48864 2.79505,6.91706 -1.5301,-2.54067 -3.19153,-5.01549 -4.97692,-7.41397 1.11146,1.79905 1.90113,3.76349 2.32798,5.79153 -1.73203,-2.05499 -3.63398,-3.99023 -5.6845,-5.78479 0.93004,1.12253 1.8609,2.24507 2.79094,3.3676 -1.65979,-1.26846 -3.43203,-2.58482 -5.56957,-2.89838 -0.16253,-0.024 -0.6017,-8.2e-4 -1.12377,0.0217 -1.10242,0.0479 -2.56931,0.0958 -2.55782,-0.2941 0.0222,-0.71244 3.37048,-1.06566 3.95904,-1.13451"
       style="fill:#3f76ad;fill-opacity:1;fill-rule:nonzero;stroke:none;stroke-width:0.00783772" />
    <path
       id="path64-0"
       d="m 147.37174,36.211214 -1.4316,-0.85238 c -1.39219,-0.43255 -3.03146,-0.0314 -4.05344,0.9332 -1.02115,0.96388 -1.40778,2.43066 -1.04989,3.73056 0.3579,1.30064 1.42339,2.40746 2.76058,2.96573 0.15104,0.0629 0.32506,0.11974 0.48021,0.0644 0.12313,-0.0442 0.20439,-0.14892 0.29551,-0.23723 0.49744,-0.48493 1.32323,-0.49092 2.00537,-0.72366 1.16728,-0.39962 1.91427,-1.52589 2.01359,-2.65966 0.10015,-1.13301 -0.35789,-2.25779 -1.02033,-3.22092"
       style="fill:#4f3522;fill-opacity:1;fill-rule:nonzero;stroke:none;stroke-width:0.00783772" />
    <path
       id="path65-7"
       d="m 149.71284,34.840224 -1.37659,0.92347 c -0.9325,1.03722 -1.09503,2.57734 -0.46214,3.78743 0.63289,1.21009 2.00455,2.05349 3.46569,2.20391 1.46114,0.14967 2.97154,-0.37193 4.01322,-1.31785 0.1182,-0.10777 0.23723,-0.23574 0.23477,-0.38765 -0.002,-0.12049 -0.0813,-0.2275 -0.14037,-0.33601 -0.32343,-0.59495 -0.0402,-1.30139 -0.041,-1.96519 -7.1e-4,-1.1375 -0.8972,-2.16948 -2.0259,-2.65142 -1.12951,-0.48269 -2.44536,-0.48569 -3.66763,-0.25669"
       style="fill:#4f3522;fill-opacity:1;fill-rule:nonzero;stroke:none;stroke-width:0.00783772" />
    <path
       id="path66-0"
       d="m 144.33453,37.579204 c -0.2241,0.84714 -0.2085,1.85144 0.47774,2.45835 0.46051,0.40636 1.12213,0.54481 1.74927,0.66754 1.02854,0.20056 2.05791,0.40112 3.08646,0.60168 0.0862,0.0172 0.17402,0.0337 0.26103,0.0202 0.14037,-0.0224 0.25037,-0.11973 0.34723,-0.21553 0.89556,-0.8853 1.47673,-2.03103 1.63598,-3.22691 0.0813,-0.60691 0.0525,-1.24003 -0.21342,-1.80129 -0.3464,-0.72815 -1.07369,-1.27296 -1.89127,-1.5461 -2.59395,-0.86884 -4.8464,0.74386 -5.45302,3.04206"
       style="fill:#755032;fill-opacity:1;fill-rule:nonzero;stroke:none;stroke-width:0.00783772" />
    <path
       id="path67-2"
       d="m 131.57005,36.883234 c 2.13918,0.10103 4.27918,0.20206 6.41918,0.30309 -4.30873,1.10607 -8.21606,2.83103 -11.42154,5.04093 2.79259,-0.93246 5.67219,-1.7549 8.6232,-2.4621 -3.31383,1.08512 -6.53574,2.28698 -9.65174,3.59885 2.29021,-0.69672 4.57961,-1.39344 6.86983,-2.09016 -3.28265,1.48773 -6.46761,3.07125 -9.54504,4.74533 2.2853,-1.04171 4.66252,-1.99363 7.11773,-2.85049 -4.38507,1.9128 -8.49104,4.10698 -12.25307,6.55111 2.74826,-1.39494 5.51458,-2.79661 8.62074,-3.81213 -4.05262,2.44488 -7.95584,5.00501 -11.69817,7.67215 2.52417,-1.46528 5.04833,-2.93056 7.5725,-4.39585 -3.78174,2.54067 -7.60123,5.11427 -10.31009,8.25887 2.93624,-2.19718 5.90613,-4.41306 9.54011,-6.0587 -2.14164,1.69129 -4.30298,3.40353 -5.77726,5.42409 1.75091,-1.6374 3.72427,-3.15507 5.88972,-4.5313 -0.32424,1.96294 -2.58737,3.5532 -2.43797,5.55505 1.62203,-2.12009 3.24406,-4.24018 4.8661,-6.36028 -1.00557,1.58577 -1.7148,3.27481 -2.10471,5.01623 1.54487,-2.68735 3.4025,-5.27441 5.54906,-7.73052 -0.31111,1.32758 -0.62221,2.65517 -0.9325,3.98275 -0.0919,0.39514 -0.165,0.84565 0.20849,1.18166 1.07616,-2.48828 2.15232,-4.97732 3.22847,-7.46635 -0.84713,1.85068 -1.18615,3.83757 -0.99571,5.83269 0.91198,-2.54741 1.82479,-5.09481 2.73677,-7.64147 -0.64274,2.06546 -1.10981,4.16685 -1.39793,6.29069 1.63188,-2.42318 2.6908,-5.0342 3.74315,-7.63324 -0.55984,1.78258 -0.91116,3.60708 -1.04907,5.45178 1.30272,-2.60878 2.60543,-5.21754 3.90815,-7.82632 -0.3817,1.81402 -0.76341,3.62804 -1.14511,5.4428 1.75911,-2.65068 3.13817,-5.43831 4.11336,-8.31274 -0.18798,1.80803 -0.79542,3.55694 -1.4004,5.29761 1.55308,-1.71149 2.64237,-3.63776 3.20302,-5.66356 -0.2323,1.25275 -0.58117,2.48829 -1.04414,3.69688 1.25018,-1.63366 2.3682,-3.3197 3.34667,-5.05066 -0.48923,1.0739 -0.97847,2.14779 -1.46771,3.22168 0.97438,-1.32759 1.9471,-2.65442 2.92229,-3.98126 1.1016,-1.49821 0.28894,-1.72571 -1.92083,-1.3418 -4.06985,0.70794 -8.05516,1.59101 -11.92555,2.64469"
       style="fill:#3f76ad;fill-opacity:1;fill-rule:nonzero;stroke:none;stroke-width:0.00783772" />
    <path
       id="path68-0"
       d="m 146.68877,38.403894 c -0.0821,0 -0.16335,-0.0135 -0.23969,-0.0412 -0.44819,-0.16389 -0.56558,-0.68923 -0.55737,-1.12927 0.009,-0.46547 0.0927,-0.94293 0.36118,-1.33806 0.22574,-0.33077 0.69528,-0.68549 1.15168,-0.68549 0.008,0 0.0164,0 0.0255,8.1e-4 0.31932,0.009 1.12131,0.37119 1.15578,0.68924 0.009,0.0778 -0.0345,0.15266 -0.0837,0.21628 -0.2676,0.34723 -0.75109,0.54181 -0.94317,0.92871 -0.17649,0.35921 -0.0657,0.81944 -0.33246,1.12851 -0.12723,0.14743 -0.33327,0.2305 -0.53767,0.2305"
       style="fill:#8f7159;fill-opacity:1;fill-rule:nonzero;stroke:none;stroke-width:0.00783772" />
    <path
       id="path69-9"
       d="m 144.26886,58.741974 c -0.0649,0.0112 -0.12888,0.0292 -0.19126,0.0561 0.0657,-0.0135 0.1297,-0.0329 0.19126,-0.0561"
       style="fill:#7f5737;fill-opacity:1;fill-rule:nonzero;stroke:none;stroke-width:0.00783772" />
    <path
       id="path70-6"
       d="m 152.38804,78.404294 c -3.9262,-5.17264 -5.8815,-15.43036 -6.64737,-24.07837 -0.42767,-4.83288 -0.252,-9.23097 0.0755,-12.62702 -0.13052,-0.006 -0.25365,0.01 -0.36118,0.0531 -0.041,0.0172 -1.35607,2.56462 -1.37085,2.54815 0.61894,0.72067 0.8102,1.7302 0.49252,2.59829 -0.26432,0.72367 -0.82415,1.58951 -0.25282,2.14554 0.11738,0.11375 0.27253,0.19532 0.37349,0.32105 0.14858,0.18484 0.15678,0.42955 0.16581,0.65855 0.0558,1.39569 0.35297,2.78688 0.24955,4.18032 -0.10343,1.39344 -0.69856,2.85872 -1.99635,3.60109 0.65752,-0.0868 1.31585,-0.17362 1.97336,-0.26042 0.0468,0.50289 -0.31275,1.00728 -0.82086,1.19736 0.41125,-0.0703 0.86519,0.15416 1.11227,0.4782 0.28649,0.37568 0.36365,0.84789 0.4326,1.30065 0.14611,0.95789 0.29223,1.93225 0.1297,2.88791 -0.16253,0.9564 -0.68214,1.90831 -1.59167,2.40521 0.60416,0.39738 1.62039,-0.62412 2.08582,-0.0943 0.2553,0.29111 -0.023,0.7087 -0.29222,0.98783 0.28237,0.0486 0.56475,0.0965 0.84795,0.14518 -0.59184,0.91 -1.2789,1.76911 -2.05052,2.55938 0.31603,0.2058 0.75438,0.0801 1.10735,-0.0666 0.35379,-0.14743 0.76012,-0.31057 1.11227,-0.16165 0.35216,0.14893 0.33163,0.77381 -0.0558,0.74986 0.79132,0.22899 0.96288,1.20634 0.73468,1.93375 -0.2282,0.7274 -0.70923,1.40691 -0.70266,2.16349 0.43916,-0.0419 0.87915,-0.0838 1.31913,-0.12572 -0.0895,0.92272 -0.34148,1.83198 -0.74206,2.68211 0.27991,0.0876 0.58117,-0.0322 0.85781,-0.12796 0.27663,-0.0958 0.61565,-0.1624 0.84795,0.005 0.2323,0.16763 0.0919,0.62413 -0.19208,0.5493 0.63042,0.54479 1.26167,1.09035 1.89209,1.63515 0.22738,0.19682 0.46215,0.40337 0.57051,0.67203 0.48595,1.20485 -1.82807,2.28997 -1.28794,3.47611 0.87996,-0.57473 1.75911,-1.15022 2.63908,-1.72571 0.0304,0.46847 0.0616,0.9362 0.0919,1.40467 0.30864,-0.38316 1.10981,-0.21328 1.2001,0.25444 0.26268,-0.0269 0.52535,-0.0539 0.78803,-0.0808 -0.62057,1.14947 -1.24115,2.298943 -1.86172,3.447683 0.87504,-0.59271 1.76733,-1.1637 2.67603,-1.712993 -0.28238,1.216823 -0.75848,2.396233 -1.41026,3.488083 1.56786,-0.12946 2.44865,-2.19717 4.0124,-2.03253 0.0607,0.43031 -0.0673,0.88006 -0.35051,1.22955 0.29059,-0.19757 0.58117,-0.39588 0.87176,-0.5942 0.1691,0.40935 0.86027,0.52609 1.17877,0.19832 0.0271,0.34873 0.055,0.69747 0.0821,1.0462 0.007,0.0935 0.0213,0.19906 0.10343,0.25669 0.10178,0.0703 0.24626,0.0292 0.36446,-0.0157 0.93087,-0.34948 1.88225,-0.71094 2.62924,-1.32684 0.055,-0.0457 0.10836,-0.0928 0.16089,-0.14144 v -0.004 c 0,0 -8.18568,-4.122703 -11.1917,-8.083753"
       style="fill:#7f5737;fill-opacity:1;fill-rule:nonzero;stroke:none;stroke-width:0.00783772" />
  </g>
</svg>
